<svg width="90" height="90" viewBox="0 0 90 90" fill="none" xmlns="http://www.w3.org/2000/svg">
<rect width="90" height="90" rx="45" fill="white"/>
<path d="M36.569 68.1369L35.7686 67.6575L36.569 68.1369Z" fill="#65991D" stroke="#65991D" stroke-width="2"/>
<path d="M37.2345 53.8666L37.2346 53.8665L37.2345 53.8666Z" fill="#65991D" stroke="#65991D" stroke-width="2"/>
<mask id="path-4-inside-1_1_817" fill="white">
<path d="M71.2064 63.098C71.2544 63.2109 71.3241 63.3132 71.4115 63.3992C71.499 63.4851 71.6026 63.553 71.7163 63.5989C71.83 63.6449 71.9516 63.6679 72.0742 63.6669C72.1969 63.6658 72.3181 63.6406 72.431 63.5927C72.5439 63.5447 72.6462 63.475 72.7321 63.3876C72.8181 63.3001 72.886 63.1965 72.9319 63.0828C72.9778 62.9691 73.0009 62.8475 72.9999 62.7249C72.9988 62.6022 72.9736 62.481 72.9256 62.3681L62.4005 37.4949C62.6217 36.7763 62.7337 36.0268 62.7328 35.2746C62.7334 34.1263 62.4832 32.9917 61.9995 31.9503C61.5159 30.9088 60.8105 29.9856 59.9328 29.2453V27.2666C59.9304 26.6896 59.7498 26.1274 59.4156 25.6569C59.0815 25.1864 58.6102 24.8307 58.0661 24.6384V20.2666C58.0661 19.4003 57.722 18.5694 57.1093 17.9568C56.4967 17.3442 55.6658 17 54.7995 17C53.9331 17 53.1022 17.3442 52.4896 17.9568C51.877 18.5694 51.5328 19.4003 51.5328 20.2666V24.6384C50.9888 24.8307 50.5175 25.1864 50.1833 25.6569C49.8492 26.1274 49.6686 26.6896 49.6662 27.2666V29.2453C48.7886 29.9858 48.0834 30.909 47.5998 31.9504C47.1162 32.9919 46.8658 34.1263 46.8662 35.2746C46.8652 36.0274 46.9769 36.7761 47.1975 37.4959L36.6743 62.3681C36.5852 62.5944 36.5879 62.8465 36.6819 63.0708C36.776 63.2951 36.9538 63.4739 37.1776 63.569C37.4015 63.6641 37.6536 63.6681 37.8803 63.5802C38.107 63.4922 38.2905 63.3192 38.3916 63.098L39.3902 60.7376L44.5786 58.5116C45.4405 58.1377 46.1313 57.4548 46.5153 56.5974L52.6006 42.8961C54.0328 43.3149 55.555 43.3149 56.9872 42.8961L63.0818 56.603C63.4661 57.4607 64.1577 58.1433 65.0203 58.5163L70.2041 60.7404L71.2064 63.098ZM57.1328 35.4426C57.1328 35.749 57.0724 36.0524 56.9552 36.3355C56.8379 36.6186 56.6661 36.8758 56.4494 37.0925C56.2327 37.3091 55.9755 37.481 55.6924 37.5983C55.4093 37.7155 55.1059 37.7759 54.7995 37.7759C54.4931 37.7759 54.1896 37.7155 53.9066 37.5983C53.6235 37.481 53.3662 37.3091 53.1496 37.0925C52.9329 36.8758 52.761 36.6186 52.6438 36.3355C52.5265 36.0524 52.4662 35.749 52.4662 35.4426C52.469 35.2008 52.511 34.9619 52.5894 34.7332H57.0087C57.0889 34.961 57.13 35.2008 57.1328 35.4426ZM53.3995 20.2666C53.3995 19.8953 53.547 19.5393 53.8095 19.2767C54.0721 19.0142 54.4282 18.8667 54.7995 18.8667C55.1708 18.8667 55.5269 19.0142 55.7894 19.2767C56.052 19.5393 56.1995 19.8953 56.1995 20.2666V24.4666H53.3995V20.2666ZM51.5328 27.2666C51.5328 27.0191 51.6312 26.7817 51.8062 26.6066C51.9812 26.4316 52.2186 26.3333 52.4662 26.3333H57.1328C57.3803 26.3333 57.6177 26.4316 57.7928 26.6066C57.9678 26.7817 58.0661 27.0191 58.0661 27.2666V31.9332C58.0661 32.1808 57.9678 32.4182 57.7928 32.5932C57.6177 32.7682 57.3803 32.8666 57.1328 32.8666H52.4662C52.2186 32.8666 51.9812 32.7682 51.8062 32.5932C51.6312 32.4182 51.5328 32.1808 51.5328 31.9332V27.2666ZM43.8375 56.798L40.4402 58.2531L48.2662 39.7527C48.9437 40.7444 49.8372 41.5696 50.8795 42.1662L45.2795 54.7886L44.8129 55.8358C44.619 56.2668 44.2712 56.61 43.8375 56.798ZM52.4568 40.8736C51.6647 40.5401 50.9528 40.0418 50.3683 39.4118C49.7838 38.7818 49.3402 38.0344 49.067 37.2196C48.8419 36.596 48.7287 35.9375 48.7328 35.2746C48.7316 34.1262 49.059 33.0014 49.6764 32.0331C49.7044 32.8834 50.1207 33.6739 50.8048 34.1798C50.6716 34.5876 50.6023 35.0135 50.5995 35.4426C50.5995 36.5565 51.042 37.6247 51.8296 38.4124C52.6173 39.2 53.6856 39.6425 54.7995 39.6425C55.9134 39.6425 56.9817 39.2 57.7693 38.4124C58.557 37.6247 58.9995 36.5565 58.9995 35.4426C58.9981 35.0117 58.9292 34.5837 58.7951 34.1742C59.1317 33.9249 59.4079 33.603 59.6031 33.2323C59.7983 32.8616 59.9075 32.4518 59.9225 32.0331C60.54 33.0014 60.8674 34.1262 60.8661 35.2746C60.8698 35.9466 60.7541 36.6139 60.5226 37.2457C60.2499 38.0566 59.8068 38.7997 59.2231 39.4251C58.6394 40.0506 57.9286 40.5438 57.1384 40.8717C55.6398 41.493 53.9559 41.4937 52.4568 40.8736ZM65.7651 56.7999C65.3303 56.6133 64.9811 56.2707 64.7861 55.8395L58.7195 42.1672C59.7632 41.5736 60.6571 40.749 61.3328 39.7564L69.1578 58.2531L65.7651 56.7999Z"/>
</mask>
<path d="M71.2064 63.098C71.2544 63.2109 71.3241 63.3132 71.4115 63.3992C71.499 63.4851 71.6026 63.553 71.7163 63.5989C71.83 63.6449 71.9516 63.6679 72.0742 63.6669C72.1969 63.6658 72.3181 63.6406 72.431 63.5927C72.5439 63.5447 72.6462 63.475 72.7321 63.3876C72.8181 63.3001 72.886 63.1965 72.9319 63.0828C72.9778 62.9691 73.0009 62.8475 72.9999 62.7249C72.9988 62.6022 72.9736 62.481 72.9256 62.3681L62.4005 37.4949C62.6217 36.7763 62.7337 36.0268 62.7328 35.2746C62.7334 34.1263 62.4832 32.9917 61.9995 31.9503C61.5159 30.9088 60.8105 29.9856 59.9328 29.2453V27.2666C59.9304 26.6896 59.7498 26.1274 59.4156 25.6569C59.0815 25.1864 58.6102 24.8307 58.0661 24.6384V20.2666C58.0661 19.4003 57.722 18.5694 57.1093 17.9568C56.4967 17.3442 55.6658 17 54.7995 17C53.9331 17 53.1022 17.3442 52.4896 17.9568C51.877 18.5694 51.5328 19.4003 51.5328 20.2666V24.6384C50.9888 24.8307 50.5175 25.1864 50.1833 25.6569C49.8492 26.1274 49.6686 26.6896 49.6662 27.2666V29.2453C48.7886 29.9858 48.0834 30.909 47.5998 31.9504C47.1162 32.9919 46.8658 34.1263 46.8662 35.2746C46.8652 36.0274 46.9769 36.7761 47.1975 37.4959L36.6743 62.3681C36.5852 62.5944 36.5879 62.8465 36.6819 63.0708C36.776 63.2951 36.9538 63.4739 37.1776 63.569C37.4015 63.6641 37.6536 63.6681 37.8803 63.5802C38.107 63.4922 38.2905 63.3192 38.3916 63.098L39.3902 60.7376L44.5786 58.5116C45.4405 58.1377 46.1313 57.4548 46.5153 56.5974L52.6006 42.8961C54.0328 43.3149 55.555 43.3149 56.9872 42.8961L63.0818 56.603C63.4661 57.4607 64.1577 58.1433 65.0203 58.5163L70.2041 60.7404L71.2064 63.098ZM57.1328 35.4426C57.1328 35.749 57.0724 36.0524 56.9552 36.3355C56.8379 36.6186 56.6661 36.8758 56.4494 37.0925C56.2327 37.3091 55.9755 37.481 55.6924 37.5983C55.4093 37.7155 55.1059 37.7759 54.7995 37.7759C54.4931 37.7759 54.1896 37.7155 53.9066 37.5983C53.6235 37.481 53.3662 37.3091 53.1496 37.0925C52.9329 36.8758 52.761 36.6186 52.6438 36.3355C52.5265 36.0524 52.4662 35.749 52.4662 35.4426C52.469 35.2008 52.511 34.9619 52.5894 34.7332H57.0087C57.0889 34.961 57.13 35.2008 57.1328 35.4426ZM53.3995 20.2666C53.3995 19.8953 53.547 19.5393 53.8095 19.2767C54.0721 19.0142 54.4282 18.8667 54.7995 18.8667C55.1708 18.8667 55.5269 19.0142 55.7894 19.2767C56.052 19.5393 56.1995 19.8953 56.1995 20.2666V24.4666H53.3995V20.2666ZM51.5328 27.2666C51.5328 27.0191 51.6312 26.7817 51.8062 26.6066C51.9812 26.4316 52.2186 26.3333 52.4662 26.3333H57.1328C57.3803 26.3333 57.6177 26.4316 57.7928 26.6066C57.9678 26.7817 58.0661 27.0191 58.0661 27.2666V31.9332C58.0661 32.1808 57.9678 32.4182 57.7928 32.5932C57.6177 32.7682 57.3803 32.8666 57.1328 32.8666H52.4662C52.2186 32.8666 51.9812 32.7682 51.8062 32.5932C51.6312 32.4182 51.5328 32.1808 51.5328 31.9332V27.2666ZM43.8375 56.798L40.4402 58.2531L48.2662 39.7527C48.9437 40.7444 49.8372 41.5696 50.8795 42.1662L45.2795 54.7886L44.8129 55.8358C44.619 56.2668 44.2712 56.61 43.8375 56.798ZM52.4568 40.8736C51.6647 40.5401 50.9528 40.0418 50.3683 39.4118C49.7838 38.7818 49.3402 38.0344 49.067 37.2196C48.8419 36.596 48.7287 35.9375 48.7328 35.2746C48.7316 34.1262 49.059 33.0014 49.6764 32.0331C49.7044 32.8834 50.1207 33.6739 50.8048 34.1798C50.6716 34.5876 50.6023 35.0135 50.5995 35.4426C50.5995 36.5565 51.042 37.6247 51.8296 38.4124C52.6173 39.2 53.6856 39.6425 54.7995 39.6425C55.9134 39.6425 56.9817 39.2 57.7693 38.4124C58.557 37.6247 58.9995 36.5565 58.9995 35.4426C58.9981 35.0117 58.9292 34.5837 58.7951 34.1742C59.1317 33.9249 59.4079 33.603 59.6031 33.2323C59.7983 32.8616 59.9075 32.4518 59.9225 32.0331C60.54 33.0014 60.8674 34.1262 60.8661 35.2746C60.8698 35.9466 60.7541 36.6139 60.5226 37.2457C60.2499 38.0566 59.8068 38.7997 59.2231 39.4251C58.6394 40.0506 57.9286 40.5438 57.1384 40.8717C55.6398 41.493 53.9559 41.4937 52.4568 40.8736ZM65.7651 56.7999C65.3303 56.6133 64.9811 56.2707 64.7861 55.8395L58.7195 42.1672C59.7632 41.5736 60.6571 40.749 61.3328 39.7564L69.1578 58.2531L65.7651 56.7999Z" fill="#65991D" stroke="#65991D" stroke-width="4" mask="url(#path-4-inside-1_1_817)"/>
</svg>
