<svg width="90" height="90" viewBox="0 0 90 90" fill="none" xmlns="http://www.w3.org/2000/svg">
<rect width="90" height="90" rx="45" fill="#65991D"/>
<path d="M73.7137 67.4424H66.7145C67.0336 66.8953 67.2299 66.2677 67.2299 65.5899H69.4623C70.2149 65.5899 70.9259 65.2625 71.4142 64.6917C71.6555 64.4095 71.8326 64.0783 71.9335 63.721C72.0344 63.3637 72.0566 62.9888 71.9986 62.6221C71.3917 58.7316 69.1194 56.7625 67.8186 55.9343C67.5581 55.7687 67.3745 55.4906 67.3048 55.1663L66.905 53.1392C66.6852 52.0731 65.8986 51.241 64.9054 50.9191L70.0772 23.3434C70.1119 23.1542 70.194 22.977 70.316 22.8283C70.438 22.6797 70.5958 22.5645 70.7745 22.4935L73.0866 21.5687C74.2508 21.1037 74.8523 19.808 74.4552 18.6198C74.3511 18.3091 74.1839 18.0232 73.9641 17.7802C73.7443 17.5371 73.4767 17.3421 73.178 17.2074C72.5765 16.9374 71.8808 16.9301 71.2739 17.1911L68.5756 18.3475C66.8199 19.0996 65.5734 20.6717 65.2414 22.5527L60.2624 50.7698H54.0769C52.8593 50.7698 51.783 51.497 51.3361 52.6205L50.532 54.6295C50.3023 55.2012 49.811 55.6317 49.2204 55.7805L41.8239 57.6321C40.0708 58.0618 38.6788 59.3475 38.1008 61.073L37.72 62.215C37.4576 63.0091 37.587 63.8527 38.0754 64.5283C38.563 65.2031 39.321 65.5898 40.155 65.5898H42.221C42.221 66.2676 42.4172 66.8951 42.7363 67.4423H39.4775C38.649 67.4423 37.9019 67.2216 37.3175 66.8041C36.3741 66.1307 36.4473 65.4627 36.6156 64.9566C37.711 61.6722 34.6699 58.5809 34.5396 58.451C34.3992 58.3103 34.2172 58.2186 34.0205 58.1894C33.8239 58.1603 33.623 58.1952 33.4478 58.2892C33.2724 58.3829 33.1319 58.5307 33.047 58.7105C32.9622 58.8904 32.9375 59.0928 32.9766 59.2878C33.4243 61.5265 32.9016 62.6929 32.4049 63.2709C31.7173 60.9946 32.5026 57.1313 32.9232 55.6551C32.9762 55.4686 32.9693 55.2701 32.9036 55.0876C32.8379 54.9052 32.7166 54.7479 32.5569 54.638C32.2285 54.4123 31.7925 54.4218 31.4769 54.6601C29.4552 56.1757 28.2087 58.637 27.466 60.7242C26.9668 55.9961 27.2091 48.5091 27.3991 45.2663C27.4101 45.0788 27.3639 44.8924 27.2664 44.7318C27.169 44.5712 27.0251 44.444 26.8537 44.3671C26.6824 44.2901 26.4918 44.267 26.3071 44.3009C26.1224 44.3349 25.9524 44.4242 25.8197 44.5571C22.9207 47.4557 22.0504 53.509 21.8298 58.0603C19.8579 54.9906 17.0067 52.9251 16.824 52.7945C16.6522 52.6714 16.4434 52.6109 16.2324 52.623C16.0213 52.6352 15.8209 52.7193 15.6643 52.8614C15.5078 53.0031 15.4044 53.194 15.3712 53.4025C15.338 53.611 15.3769 53.8246 15.4816 54.0079C18.3608 59.0471 17.6851 65.3948 17.3577 67.4747C16.2251 67.6631 15.3594 68.6501 15.3594 69.8354V72.0737C15.3594 72.5853 15.7736 73 16.2856 73H73.7137C74.2257 73 74.6399 72.5853 74.6399 72.0737V68.3687C74.6399 67.8572 74.2257 67.4424 73.7137 67.4424ZM49.631 65.5899H59.8198C59.8198 66.2677 60.016 66.8953 60.3351 67.4424H49.1157C49.4347 66.8953 49.631 66.2677 49.631 65.5899ZM61.6723 65.5899C61.6723 64.5683 62.5036 63.7374 63.5248 63.7374C64.546 63.7374 65.3774 64.5683 65.3774 65.5899C65.3774 66.6116 64.546 67.4424 63.5248 67.4424C62.5036 67.4424 61.6723 66.6116 61.6723 65.5899ZM69.3049 20.05L72.0032 18.894C72.1869 18.8152 72.3406 18.8632 72.4193 18.8976C72.4848 18.9267 72.5433 18.9691 72.5913 19.0223C72.6393 19.0754 72.6756 19.138 72.6979 19.206C72.7393 19.331 72.7315 19.4671 72.676 19.5865C72.6206 19.7059 72.5217 19.7997 72.3994 19.8487L70.0874 20.7736C69.2248 21.1185 68.6046 21.8387 68.3479 22.7173L67.2418 22.2412C67.5957 21.265 68.3306 20.4679 69.3049 20.05ZM66.8509 24.0898L67.9629 24.5685L63.0497 50.7698H62.1427L66.8509 24.0898ZM40.1549 63.7374C39.9224 63.7374 39.7116 63.6302 39.5769 63.4434C39.4403 63.2548 39.4051 63.0192 39.4774 62.7985L39.8573 61.6606C40.2264 60.5593 41.149 59.7049 42.2697 59.4304L49.6726 57.5774C49.9637 57.5035 50.2448 57.3948 50.5099 57.2536H60.8791C61.3911 57.2536 61.8054 56.8389 61.8054 56.3273C61.8054 55.8158 61.3911 55.4011 60.8791 55.4011H52.2066C52.2192 55.3721 52.2398 55.3484 52.2515 55.3192L53.0574 53.3075C53.2221 52.8914 53.6228 52.6223 54.0769 52.6223H64.0061C64.5371 52.6223 64.9831 52.9886 65.0889 53.5051L65.463 55.4011H64.5507C64.0387 55.4011 63.6244 55.8158 63.6244 56.3273C63.6244 56.8389 64.0387 57.2536 64.5507 57.2536H66.5156C66.6159 57.3382 66.7129 57.4267 66.8246 57.4978C67.8612 58.1572 69.6731 59.737 70.1679 62.9088C70.2131 63.1946 70.0855 63.3945 70.006 63.4877C69.9264 63.5809 69.75 63.7374 69.4623 63.7374H66.7145C66.0719 62.6354 64.8903 61.8849 63.5248 61.8849C62.1594 61.8849 60.9777 62.6354 60.3351 63.7374H49.1157C48.4731 62.6354 47.2915 61.8849 45.926 61.8849C44.5606 61.8849 43.3789 62.6354 42.7363 63.7374H40.1549ZM44.0734 65.5899C44.0734 64.5683 44.9047 63.7374 45.9259 63.7374C46.9471 63.7374 47.7784 64.5683 47.7784 65.5899C47.7784 66.6116 46.9471 67.4424 45.9259 67.4424C44.9047 67.4424 44.0734 66.6116 44.0734 65.5899ZM72.7874 71.1475H17.2119V69.8354C17.212 69.6922 17.2689 69.5549 17.3702 69.4536C17.4714 69.3522 17.6087 69.2952 17.7519 69.295H18.1382C18.3489 69.2949 18.5534 69.2229 18.7178 69.091C18.8822 68.9592 18.9968 68.7752 19.0426 68.5695C19.106 68.2827 20.3018 62.7201 18.7207 57.0482C20.1326 58.6316 21.5645 60.7613 21.8069 63.063C21.8241 63.4713 21.8404 63.7292 21.8449 63.7988C21.8775 64.2977 22.3479 64.669 22.8001 64.6631C23.0403 64.6551 23.268 64.5541 23.4351 64.3813C23.6022 64.2086 23.6956 63.9776 23.6956 63.7373C23.6956 63.4804 23.683 63.2258 23.6603 62.9738C23.5725 60.6876 23.4648 53.3413 25.3925 48.6493C25.2252 53.6271 25.1628 62.2588 26.5721 65.0778C26.7539 65.4396 27.1465 65.6399 27.5491 65.578C27.7439 65.5462 27.9235 65.453 28.0617 65.3122C28.2 65.1713 28.2898 64.99 28.318 64.7946C28.3243 64.7494 28.8191 61.4198 30.4328 58.6686C30.1588 60.8372 30.1415 63.498 31.2614 65.1773C31.3741 65.3464 31.5393 65.4737 31.7316 65.5397C31.9238 65.6056 32.1324 65.6065 32.3252 65.5422C32.431 65.5069 34.2691 64.8593 34.8371 62.4233C35.0217 63.0447 35.0768 63.7163 34.8589 64.3703C34.3459 65.9089 34.8363 67.3087 36.2411 68.3114C37.141 68.9546 38.2601 69.2946 39.4775 69.2946H72.7875V71.1475H72.7874Z" fill="white"/>
<path d="M42.0708 43.3622C41.7823 42.5014 41.121 41.843 40.2581 41.5549C39.9605 41.4572 39.6313 41.5138 39.3862 41.7105C39.254 41.8164 36.1343 44.3577 35.3745 48.927C34.9819 51.2915 36.432 53.656 38.7458 54.4276C38.8956 54.4775 39.0556 54.4882 39.2108 54.4589C39.3659 54.4295 39.511 54.361 39.6322 54.2598C39.7536 54.1588 39.847 54.0284 39.9037 53.881C39.9604 53.7336 39.9784 53.5741 39.956 53.4178C39.4721 50.0334 40.6417 47.4749 41.7082 45.924C42.23 45.1644 42.3621 44.2305 42.0708 43.3622ZM40.1812 44.875C39.1347 46.3973 38.0022 48.7473 37.9904 51.7989C37.3617 51.1132 37.0461 50.1711 37.2017 49.2304C37.6802 46.3543 39.2976 44.3946 40.0936 43.5805C40.1933 43.6864 40.2686 43.8128 40.3143 43.9509C40.4192 44.2631 40.3703 44.5995 40.1812 44.875ZM46.2327 47.827C46.3825 47.8655 46.5396 47.8658 46.6896 47.8279C46.8396 47.7899 46.9776 47.715 47.0911 47.6099C47.1924 47.5159 49.584 45.2662 49.935 41.5128C50.1213 39.5165 48.7726 37.6296 46.797 37.1239C46.6441 37.0845 46.4837 37.0849 46.331 37.1252C46.1784 37.1656 46.0386 37.2443 45.9251 37.3541C45.8113 37.4636 45.7274 37.6003 45.6813 37.7514C45.6352 37.9024 45.6286 38.0627 45.6619 38.217C46.2273 40.8267 45.4584 42.8858 44.7139 44.154C44.3113 44.8397 44.2553 45.652 44.5592 46.3819C44.8614 47.1056 45.471 47.6325 46.2327 47.827ZM46.3113 45.0916C47.0169 43.8908 47.7396 42.1102 47.7107 39.8873C47.9947 40.3084 48.1394 40.8176 48.0896 41.34C47.8942 43.4318 46.8983 44.9709 46.2969 45.7262C46.2868 45.7075 46.2778 45.6884 46.2698 45.6688C46.191 45.481 46.2064 45.2703 46.3113 45.0916ZM42.9944 36.6662C43.1317 36.5882 43.2467 36.4763 43.3284 36.3411C43.4101 36.2059 43.4558 36.0521 43.4611 35.8942C43.5551 33.2267 44.8071 31.4198 45.8392 30.3742C46.3982 29.8088 46.6532 29.0355 46.5384 28.253C46.4235 27.4769 45.9621 26.8157 45.2711 26.4394C45.1352 26.3657 44.9831 26.327 44.8284 26.3269C44.6738 26.3268 44.5216 26.3653 44.3856 26.439C44.2644 26.505 41.3934 28.0974 40.1297 31.6496C39.4576 33.5392 40.3015 35.6993 42.0926 36.6753C42.2312 36.7506 42.3868 36.7893 42.5446 36.7878C42.7025 36.7862 42.8573 36.7444 42.9944 36.6662ZM41.8862 33.773C41.7144 33.2949 41.699 32.7653 41.8754 32.2705C42.5791 30.2903 43.9241 29.0439 44.693 28.4596C44.6985 28.4826 44.7021 28.5039 44.7048 28.5229C44.7347 28.7237 44.6678 28.9236 44.5212 29.072C43.5434 30.0629 42.4046 31.6111 41.8862 33.773Z" fill="white"/>
</svg>
