<svg width="91" height="90" viewBox="0 0 91 90" fill="none" xmlns="http://www.w3.org/2000/svg">
<rect x="0.269531" width="90" height="90" rx="45" fill="white"/>
<path d="M34.2446 64.713H26.2927C24.5033 64.713 23.0488 63.2585 23.0488 61.4691V43.6323C23.0488 41.8429 24.5033 40.3884 26.2927 40.3884H34.2446C36.034 40.3884 37.4885 41.8429 37.4885 43.6323V61.4786C37.4885 63.268 36.034 64.713 34.2446 64.713ZM26.2927 42.3022C25.5655 42.3022 24.9626 42.8955 24.9626 43.6323V61.4786C24.9626 62.2059 25.5559 62.8087 26.2927 62.8087H34.2446C34.9719 62.8087 35.5747 62.2154 35.5747 61.4786V43.6323C35.5747 42.9051 34.9814 42.3022 34.2446 42.3022H26.2927Z" fill="#65991D"/>
<path d="M51.7456 49.6801C51.6199 49.6832 51.4949 49.6616 51.3776 49.6164C51.2603 49.5712 51.153 49.5034 51.0619 49.4167C50.878 49.2418 50.7711 49.0009 50.7647 48.7471C50.7584 48.4933 50.8531 48.2474 51.0281 48.0635C51.2031 47.8795 51.4439 47.7726 51.6977 47.7663L66.6159 47.0008C67.0752 46.9816 67.4293 46.5989 67.4293 46.1396V44.5128C67.4293 44.2736 67.3336 44.0631 67.1709 43.8908C67.0884 43.8115 66.9908 43.7495 66.884 43.7085C66.7772 43.6674 66.6633 43.648 66.5489 43.6516L51.736 44.0535C50.8174 44.0822 49.9275 43.7377 49.2672 43.087C48.5974 42.4363 48.2337 41.5751 48.2337 40.6469V39.8431L36.9422 45.2114C36.4638 45.441 35.8992 45.2305 35.6696 44.7616C35.4399 44.2927 35.6504 43.709 36.1193 43.4889L48.7792 37.47C48.9241 37.3989 49.085 37.3667 49.2461 37.3768C49.4072 37.3869 49.5629 37.4388 49.6978 37.5274C49.9753 37.6996 50.1475 38.0059 50.1475 38.3408V40.6565C50.1475 41.068 50.3102 41.4411 50.5973 41.7282C50.8939 42.0153 51.2767 42.1684 51.6786 42.1493L66.4915 41.7474C67.2379 41.7186 67.9651 42.0057 68.501 42.532C69.0464 43.0583 69.3431 43.7664 69.3431 44.5224V46.1491C69.3431 47.6228 68.1852 48.8476 66.7116 48.9241L51.7934 49.6897C51.7839 49.6801 51.7647 49.6801 51.7456 49.6801Z" fill="#65991D"/>
<path d="M54.2913 55.5269C53.7842 55.5269 53.3631 55.125 53.3344 54.6178C53.3057 54.0915 53.7172 53.6418 54.2435 53.6131L63.4394 53.1537C64.6642 53.0963 65.6402 52.082 65.6594 50.8572L65.7072 47.9386C65.7168 47.4123 66.157 46.9721 66.6833 47.0008C67.2096 47.0104 67.6306 47.4506 67.621 47.9769L67.5732 50.8954C67.5349 53.125 65.7551 54.9527 63.535 55.0676L54.3392 55.5269H54.2913Z" fill="#65991D"/>
<path d="M54.2915 60.7611C53.7844 60.7611 53.3538 60.3592 53.3346 59.8425C53.3155 59.3162 53.727 58.8664 54.2533 58.8473L61.5162 58.5411C62.4444 58.5028 63.1716 57.7469 63.1716 56.8187V54.0819C63.1716 53.5556 63.6022 53.125 64.1285 53.125C64.6548 53.125 65.0854 53.5556 65.0854 54.0819V56.8187C65.0854 58.7803 63.5544 60.3783 61.5927 60.4549L54.3298 60.7611H54.2915Z" fill="#65991D"/>
<path d="M56.5403 65.4691H45.3828C43.1532 65.4691 40.9427 64.9141 38.9811 63.8711L36.0816 62.3209C35.9709 62.262 35.8729 62.1818 35.7932 62.085C35.7135 61.9881 35.6538 61.8765 35.6173 61.7564C35.5809 61.6364 35.5685 61.5104 35.5808 61.3856C35.5932 61.2608 35.63 61.1396 35.6893 61.0291C35.9381 60.5602 36.5122 60.388 36.9811 60.6368L39.8806 62.1869C41.5647 63.0864 43.469 63.5649 45.3828 63.5649H56.5403C58.1862 63.5649 59.5258 62.2252 59.5258 60.5793V59.8043C59.5258 59.278 59.9564 58.8473 60.4827 58.8473C61.009 58.8473 61.4396 59.278 61.4396 59.8043V60.5793C61.4396 63.2682 59.2388 65.4691 56.5403 65.4691ZM64.1285 43.7187C63.6023 43.7187 63.1716 43.2881 63.1716 42.7618V36.8577C63.1525 36.3409 62.741 25.4322 66.5878 20.1405C65.5065 20.5041 64.2912 21.107 63.1621 22.1213C60.7698 24.2935 59.4493 27.7096 59.2388 32.2836C59.2101 32.8099 58.7794 33.2023 58.234 33.1927C58.1082 33.1868 57.9848 33.1561 57.8709 33.1024C57.7571 33.0486 57.6549 32.9729 57.5704 32.8795C57.4859 32.7861 57.4208 32.6769 57.3786 32.5582C57.3365 32.4395 57.3183 32.3137 57.3249 32.188C57.5642 27.0685 59.1048 23.2026 61.899 20.6764C65.4395 17.4899 69.6595 17.6908 69.8413 17.7004C70.0573 17.712 70.263 17.7963 70.4249 17.9396C70.5869 18.083 70.6956 18.2769 70.7333 18.4899C70.771 18.7028 70.7355 18.9223 70.6327 19.1126C70.5298 19.3028 70.3655 19.4526 70.1666 19.5377C65.4874 21.528 64.9132 32.6855 65.0855 36.8098V42.7522C65.0855 43.2881 64.6548 43.7187 64.1285 43.7187ZM54.2916 43.9866H54.2341C54.1084 43.9794 53.9852 43.9474 53.8719 43.8925C53.7585 43.8375 53.6571 43.7607 53.5735 43.6665C53.4899 43.5722 53.4258 43.4623 53.3848 43.3432C53.3438 43.2241 53.3268 43.098 53.3347 42.9723C53.794 34.8194 51.0285 30.9057 48.4736 29.0397C50.4448 32.8769 50.1673 38.0825 50.1482 38.3887C50.1194 38.915 49.6793 39.3073 49.1338 39.2882C48.6075 39.2595 48.2056 38.8002 48.2343 38.2739C48.2343 38.1877 48.7128 29.2885 44.2058 27.2886C43.7752 27.0972 43.5455 26.6283 43.6699 26.169C43.7943 25.7097 44.2249 25.4131 44.6938 25.4609C44.8086 25.48 56.1671 26.791 55.2485 43.0871C55.2198 43.5943 54.7987 43.9866 54.2916 43.9866Z" fill="#65991D"/>
<path d="M59.2101 43.8527H59.1814C58.9284 43.8427 58.6894 43.7339 58.5159 43.5496C58.3423 43.3652 58.248 43.1202 58.2532 42.8671C58.7221 28.4561 53.3825 23.4227 49.8898 21.6812C51.708 24.2457 54.0524 28.657 54.3873 34.676C54.416 35.2022 54.0141 35.652 53.4878 35.6903C52.9711 35.719 52.5118 35.3171 52.483 34.7908C51.9759 25.8054 46.4832 20.5712 46.4258 20.5233C46.282 20.3879 46.1836 20.2112 46.1442 20.0176C46.1048 19.824 46.1263 19.6229 46.2057 19.442C46.3684 19.0688 46.7416 18.8392 47.1531 18.8774C47.287 18.887 60.9038 20.2171 60.1574 42.9532C60.1479 43.4508 59.7268 43.8527 59.2101 43.8527ZM52.617 73H50.6936C49.3061 73 48.177 71.8709 48.177 70.4834V64.5123C48.177 63.986 48.6076 63.5554 49.1339 63.5554C49.6602 63.5554 50.0908 63.986 50.0908 64.5123V70.4834C50.0908 70.8183 50.3587 71.0862 50.6936 71.0862H52.617C53.0381 71.0862 53.3921 70.7417 53.3921 70.3111V64.5123C53.3921 63.986 53.8227 63.5554 54.349 63.5554C54.8753 63.5554 55.3059 63.986 55.3059 64.5123V70.3111C55.3036 71.0236 55.0196 71.7062 54.5158 72.21C54.0121 72.7137 53.3295 72.9978 52.617 73Z" fill="#65991D"/>
<path d="M57.9846 71.4021H54.3387C53.8124 71.4021 53.3818 70.9715 53.3818 70.4452C53.3818 69.9189 53.8124 69.4883 54.3387 69.4883H57.9846C58.8362 69.4883 59.5252 68.7993 59.5252 67.9477V60.5699C59.5252 60.0436 59.9558 59.613 60.4821 59.613C61.0084 59.613 61.439 60.0436 61.439 60.5699V67.9477C61.439 69.8519 59.8888 71.4021 57.9846 71.4021Z" fill="#65991D"/>
<path d="M62.4822 68.8471H60.4823C59.956 68.8471 59.5254 68.4165 59.5254 67.8902C59.5254 67.3639 59.956 66.9333 60.4823 66.9333H62.4822C63.3339 66.9333 64.0228 66.2443 64.0228 65.3926V53.6706C64.0228 53.1443 64.4535 52.7136 64.9798 52.7136C65.506 52.7136 65.9367 53.1443 65.9367 53.6706V65.4022C65.9316 66.3159 65.5657 67.1907 64.9187 67.8359C64.2717 68.4811 63.396 68.8446 62.4822 68.8471ZM67.6304 43.9867C67.1424 43.9867 66.7309 43.6135 66.683 43.1255C66.2524 38.6854 67.3433 34.8004 68.2332 32.4847C64.6066 34.7143 65.0659 39.5179 65.085 39.7571C65.0983 39.8822 65.0868 40.0086 65.0511 40.1292C65.0155 40.2498 64.9564 40.3622 64.8773 40.46C64.7983 40.5577 64.7007 40.6389 64.5902 40.6989C64.4797 40.759 64.3584 40.7966 64.2334 40.8097C63.7166 40.8672 63.2382 40.4844 63.1808 39.9677C62.865 37.0778 63.8506 31.2407 69.8504 29.7862C70.2236 29.6905 70.6064 29.834 70.836 30.1402C71.0657 30.4465 71.0944 30.8579 70.9126 31.1833C70.8839 31.2407 67.9653 36.5515 68.5873 42.9436C68.6113 43.1961 68.534 43.4478 68.3726 43.6434C68.2111 43.839 67.9785 43.9624 67.7261 43.9867H67.6304Z" fill="#65991D"/>
<path d="M65.6307 65.4691H64.98C64.4537 65.4691 64.0231 65.0385 64.0231 64.5122C64.0231 63.9859 64.4537 63.5553 64.98 63.5553H65.6307C66.4249 63.5553 67.066 62.9142 67.066 62.1199V47.24C67.066 46.7137 67.4966 46.2831 68.0229 46.2831C68.5492 46.2831 68.9798 46.7137 68.9798 47.24V62.1199C68.9703 63.9668 67.4679 65.4691 65.6307 65.4691ZM56.32 27.9297C55.8989 27.9297 55.5162 27.6522 55.4014 27.2311C54.6358 24.4561 54.5019 18.7434 59.4873 17.0497C59.8318 16.9348 60.2242 17.021 60.4825 17.2889C60.7409 17.5568 60.8174 17.9492 60.693 18.2936C60.6835 18.3319 59.3342 22.016 60.5495 25.2216C60.7409 25.7192 60.4921 26.2647 59.9945 26.4561C59.877 26.5009 59.7519 26.5222 59.6262 26.5186C59.5005 26.5149 59.3767 26.4865 59.262 26.435C59.1473 26.3834 59.0439 26.3097 58.9578 26.2181C58.8717 26.1264 58.8045 26.0187 58.7601 25.901C57.9563 23.7767 58.0424 21.5663 58.3104 19.9587C56.0521 22.2552 57.1908 26.5039 57.2482 26.7144C57.3917 27.2216 57.0855 27.7479 56.5783 27.8914C56.4922 27.9201 56.4061 27.9297 56.32 27.9297ZM67.6306 32.6855C67.133 32.6855 66.712 32.2932 66.6737 31.786C66.5206 29.3172 66.9034 27.4608 67.401 26.1403C65.9082 27.3364 65.4871 29.2215 65.4871 29.2502C65.3723 29.7669 64.8652 30.1019 64.3484 29.987C63.8317 29.8818 63.5063 29.365 63.6116 28.8483C63.6595 28.6474 64.7408 23.8054 69.487 23.2983C69.8985 23.2504 70.2812 23.4801 70.4535 23.8533C70.6257 24.2265 70.5396 24.6666 70.243 24.9537C70.1664 25.0303 68.2909 26.9441 68.5779 31.6712C68.586 31.797 68.569 31.9231 68.5281 32.0423C68.4872 32.1614 68.423 32.2714 68.3394 32.3656C68.2558 32.4599 68.1543 32.5367 68.0409 32.5916C67.9275 32.6465 67.8043 32.6784 67.6785 32.6855H67.6306ZM24.0148 62.2061H20.4647C19.9384 62.2061 19.5078 61.7754 19.5078 61.2491V43.6325C19.5078 43.1062 19.9384 42.6756 20.4647 42.6756H24.0148C24.5411 42.6756 24.9717 43.1062 24.9717 43.6325C24.9717 44.1588 24.5411 44.5894 24.0148 44.5894H21.4216V60.2922H24.0148C24.5411 60.2922 24.9717 60.7228 24.9717 61.2491C24.9717 61.7754 24.5411 62.2061 24.0148 62.2061Z" fill="#65991D"/>
</svg>
