<svg width="90" height="90" viewBox="0 0 90 90" fill="none" xmlns="http://www.w3.org/2000/svg">
<rect width="90" height="90" rx="45" fill="#65991D"/>
<path d="M42.1431 67.2032C41.8948 64.6018 39.7211 62.6021 37.0792 62.6021C36.9844 62.6021 36.8875 62.6052 36.787 62.6116C35.6636 61.1058 33.9513 60.1654 32.089 60.0176C32.343 57.9654 34.1595 55.6676 34.6956 55.0282C34.8127 55.0331 34.9652 55.0374 35.1511 55.0374C36.5309 55.0374 39.6418 54.8057 42.1067 52.9215C45.3051 50.4767 46.1039 46.2528 46.1363 46.0742C46.1484 46.0077 46.1465 45.9394 46.1306 45.8737C46.1148 45.808 46.0854 45.7463 46.0444 45.6926C46.0033 45.6389 45.9515 45.5943 45.8922 45.5618C45.833 45.5293 45.7676 45.5095 45.7002 45.5037C45.5193 45.4881 41.2339 45.1506 38.0355 47.5955C35.1147 49.8282 34.1955 53.5428 34.0332 54.3069C33.739 54.6477 32.7995 55.7831 32.0591 57.189V53.5042C32.6331 52.8253 34.9255 49.8886 34.9255 46.2899C34.9255 42.2642 32.0548 39.0644 31.9326 38.9302C31.8871 38.8802 31.8316 38.8403 31.7698 38.8129C31.708 38.7856 31.6411 38.7715 31.5735 38.7715C31.5059 38.7715 31.4391 38.7856 31.3773 38.8129C31.3154 38.8403 31.26 38.8802 31.2145 38.9302C31.0923 39.0644 28.2216 42.2642 28.2216 46.2899C28.2216 49.8886 30.514 52.8253 31.088 53.5042V57.189C30.3475 55.7831 29.408 54.6477 29.1138 54.3069C28.9515 53.5428 28.0323 49.8282 25.1115 47.5955C21.9131 45.1506 17.6277 45.4881 17.4468 45.5037C17.3795 45.5095 17.3141 45.5293 17.2548 45.5618C17.1956 45.5943 17.1438 45.6389 17.1027 45.6926C17.0617 45.7463 17.0323 45.8079 17.0164 45.8737C17.0006 45.9394 16.9987 46.0077 17.0107 46.0742C17.0432 46.2528 17.8419 50.4767 21.0403 52.9215C23.5055 54.8059 26.6163 55.0374 27.9959 55.0374C28.1819 55.0374 28.3344 55.0331 28.4517 55.0282C28.9879 55.6669 30.8045 57.9622 31.0581 60.0176C29.1958 60.1654 27.4834 61.1057 26.36 62.6116C26.2628 62.6054 26.1653 62.6022 26.0679 62.6021C23.4259 62.6021 21.2523 64.6018 21.004 67.2032C19.5394 68.0571 18.4689 69.2966 17.9755 70.7171C17.793 71.2425 17.8763 71.8265 18.1984 72.2793C18.5242 72.7372 19.0332 72.9999 19.5951 72.9999H43.552C44.1138 72.9999 44.6229 72.7373 44.9486 72.2793C45.2707 71.8265 45.354 71.2425 45.1715 70.7171C44.6781 69.2966 43.6076 68.0571 42.1431 67.2032ZM38.6252 48.367C40.8716 46.6498 43.8184 46.4541 45.044 46.4541H45.0488C44.7301 47.6336 43.772 50.4262 41.517 52.15C39.689 53.5472 37.3975 53.9371 35.9467 54.0339L39.5046 51.3494C39.7187 51.1879 39.7613 50.8834 39.5998 50.6693C39.4383 50.4553 39.1338 50.4126 38.9197 50.5742L35.3332 53.2803C35.8013 51.9081 36.7779 49.7791 38.6252 48.367ZM29.1927 46.2899C29.1927 43.4587 30.8311 40.9959 31.574 40.0249C32.3175 40.9944 33.9543 43.4515 33.9543 46.2899C33.9543 48.5996 32.8641 50.6637 32.059 51.8731V47.3784C32.059 47.1102 31.8416 46.8928 31.5735 46.8928C31.3053 46.8928 31.0879 47.1102 31.0879 47.3784V51.873C30.2828 50.6635 29.1927 48.5995 29.1927 46.2899ZM21.63 52.15C19.3812 50.4309 18.4195 47.6346 18.099 46.4541H18.1029C19.329 46.4541 22.2755 46.65 24.5217 48.367C26.3636 49.7749 27.3417 51.905 27.8116 53.2786L24.2273 50.5742C24.0131 50.4126 23.7087 50.4552 23.5472 50.6693C23.3857 50.8833 23.4283 51.1878 23.6423 51.3493L27.2002 54.0338C25.7493 53.937 23.4579 53.5471 21.63 52.1499V52.15ZM44.1573 71.7165C44.0161 71.9149 43.7954 72.0288 43.552 72.0288H19.595C19.3515 72.0288 19.1309 71.9149 18.9897 71.7164C18.8474 71.5163 18.8121 71.2682 18.8929 71.0357C19.3325 69.7701 20.3297 68.6655 21.7008 67.9256C21.7748 67.8856 21.8372 67.8271 21.8818 67.7558C21.9264 67.6845 21.9517 67.6028 21.9553 67.5188C22.0491 65.3063 23.8556 63.5732 26.0679 63.5732C26.2131 63.5732 26.3672 63.5827 26.5391 63.6022C26.627 63.6122 26.716 63.598 26.7965 63.5611C26.8769 63.5241 26.9458 63.4659 26.9956 63.3927C28.0283 61.873 29.7397 60.9657 31.5735 60.9657C33.4073 60.9657 35.1187 61.873 36.1515 63.3927C36.2012 63.466 36.27 63.5242 36.3505 63.5612C36.431 63.5981 36.52 63.6123 36.608 63.6022C36.7798 63.5827 36.9339 63.5732 37.0792 63.5732C39.2914 63.5732 41.0979 65.3063 41.1917 67.5188C41.1953 67.6028 41.2206 67.6845 41.2652 67.7558C41.3098 67.8271 41.3722 67.8856 41.4462 67.9256C42.8173 68.6655 43.8145 69.7701 44.2542 71.0357C44.3349 71.2682 44.2996 71.5163 44.1573 71.7165Z" fill="white"/>
<path d="M33.7233 63.0252C33.4551 63.0252 33.2377 63.2426 33.2377 63.5108C33.2377 64.4287 32.4909 65.1754 31.5731 65.1754C30.6551 65.1754 29.9084 64.4287 29.9084 63.5108C29.9084 63.2426 29.691 63.0252 29.4228 63.0252C29.1547 63.0252 28.9373 63.2426 28.9373 63.5108C28.9373 64.9641 30.1197 66.1465 31.5731 66.1465C33.0264 66.1465 34.2088 64.9641 34.2088 63.5108C34.2088 63.2426 33.9914 63.0252 33.7233 63.0252ZM31.5731 68.0019C30.2891 68.0019 29.2445 69.0465 29.2445 70.3305C29.2445 70.5986 29.4619 70.816 29.73 70.816C29.9982 70.816 30.2156 70.5986 30.2156 70.3305C30.2156 69.5819 30.8246 68.973 31.5731 68.973C32.3216 68.973 32.9306 69.5819 32.9306 70.3305C32.9306 70.5986 33.148 70.816 33.4161 70.816C33.6843 70.816 33.9017 70.5986 33.9017 70.3305C33.9017 69.0465 32.8571 68.0019 31.5731 68.0019ZM39.0516 69.3142C38.5394 69.8265 37.7058 69.8265 37.1936 69.3142C36.9454 69.0661 36.8088 68.7361 36.8088 68.3852C36.8088 68.0343 36.9454 67.7043 37.1936 67.4562C37.3832 67.2666 37.3832 66.9591 37.1936 66.7695C37.004 66.5799 36.6965 66.5799 36.5069 66.7695C36.0753 67.2011 35.8377 67.7748 35.8377 68.3852C35.8377 68.9956 36.0753 69.5693 36.5069 70.0009C36.9385 70.4325 37.5123 70.6701 38.1226 70.6701C38.7329 70.6701 39.3067 70.4325 39.7383 70.0009C39.9279 69.8113 39.9279 69.5039 39.7383 69.3142C39.5487 69.1246 39.2412 69.1246 39.0516 69.3142ZM25.9526 66.7695C25.7629 66.9592 25.7629 67.2666 25.9526 67.4562C26.2007 67.7044 26.3374 68.0343 26.3374 68.3852C26.3374 68.7362 26.2007 69.0661 25.9526 69.3143C25.4403 69.8265 24.6067 69.8265 24.0945 69.3143C23.9049 69.1246 23.5975 69.1246 23.4079 69.3143C23.2182 69.5039 23.2182 69.8113 23.4079 70.0009C23.8394 70.4325 24.4132 70.6702 25.0235 70.6702C25.6339 70.6702 26.2077 70.4325 26.6392 70.0009C27.0708 69.5694 27.3085 68.9956 27.3085 68.3852C27.3085 67.7749 27.0708 67.2011 26.6392 66.7695C26.4496 66.5799 26.1422 66.5799 25.9526 66.7695ZM46.3568 69.2774C46.3568 69.5455 46.5742 69.7629 46.8424 69.7629H66.3604C68.2346 69.7629 69.7593 68.2382 69.7593 66.3641V41.9802C69.7593 40.8201 68.8154 39.8762 67.6553 39.8762H35.7161C35.4479 39.8762 35.2306 40.0936 35.2306 40.3618C35.2306 40.6299 35.4479 40.8473 35.7161 40.8473H67.6552C68.2799 40.8473 68.7882 41.3555 68.7882 41.9803V66.3641C68.7882 67.7027 67.6991 68.7918 66.3604 68.7918H46.8424C46.5742 68.7918 46.3568 69.0092 46.3568 69.2774ZM36.8049 21.8506H49.0516C49.3198 21.8506 49.5371 21.6332 49.5371 21.365V18.7803C49.5371 17.7986 48.7385 17 47.7568 17H38.0998C37.1181 17 36.3194 17.7986 36.3194 18.7803V21.365C36.3194 21.6332 36.5368 21.8506 36.8049 21.8506ZM37.2905 18.7803C37.2905 18.3341 37.6535 17.9711 38.0997 17.9711H39.1491V19.2895C39.1491 19.5577 39.3665 19.7751 39.6346 19.7751C39.9028 19.7751 40.1201 19.5577 40.1201 19.2895V17.9711H42.4427V19.2895C42.4427 19.5577 42.6601 19.7751 42.9283 19.7751C43.1964 19.7751 43.4138 19.5577 43.4138 19.2895V17.9711H45.7364V19.2895C45.7364 19.5577 45.9538 19.7751 46.2219 19.7751C46.4901 19.7751 46.7075 19.5577 46.7075 19.2895V17.9711H47.7568C48.203 17.9711 48.566 18.3341 48.566 18.7803V20.8795H37.2905L37.2905 18.7803Z" fill="white"/>
<path d="M72.2902 29.0151L61.1897 17.8485C60.7373 17.3934 60.1097 17.1323 59.468 17.1323H56.573C55.9245 17.1323 55.3149 17.3849 54.8564 17.8434L53.0007 19.699C52.5422 20.1575 52.2897 20.7672 52.2897 21.4157V23.1996C52.0994 23.1635 51.9061 23.1453 51.7125 23.1453H37.1656C36.3232 23.1453 35.5082 23.4966 34.9298 24.1091L32.2036 26.996C31.6624 27.5692 31.3643 28.319 31.3643 29.1074V37.1248C31.3643 37.3929 31.5817 37.6103 31.8498 37.6103H72.025V67.0114C72.025 69.778 69.7743 72.0288 67.0077 72.0288H46.8423C46.5741 72.0288 46.3567 72.2462 46.3567 72.5144C46.3567 72.7825 46.5741 72.9999 46.8423 72.9999H67.0077C70.3097 72.9999 72.9961 70.3135 72.9961 67.0115V30.7267C72.9961 30.0809 72.7454 29.4731 72.2902 29.0151ZM53.2608 21.4157C53.2608 21.0266 53.4123 20.6608 53.6874 20.3857L55.5431 18.5301C55.8182 18.255 56.184 18.1034 56.573 18.1034H59.468C59.853 18.1034 60.2296 18.2601 60.501 18.5332L71.6015 29.6997C71.8747 29.9745 72.0251 30.3392 72.0251 30.7267V31.9946H69.7593V31.7949C69.7593 31.3213 69.5754 30.8755 69.2415 30.5397L59.6534 20.8945C59.3217 20.5607 58.8615 20.3693 58.3908 20.3693H57.6457C57.1702 20.3693 56.7231 20.5545 56.3868 20.8908L56.0481 21.2295C55.7118 21.5658 55.5266 22.0128 55.5266 22.4884V25.6643L53.8727 24.0318C53.6891 23.8505 53.4835 23.6929 53.2608 23.5627L53.2608 21.4157ZM58.7326 28.8286L56.4977 26.6227V22.4884C56.4977 22.2722 56.5819 22.069 56.7347 21.9162L57.0735 21.5774C57.2263 21.4245 57.4295 21.3404 57.6457 21.3404H58.3908C58.6047 21.3404 58.8139 21.4274 58.9647 21.5791L68.5528 31.2243C68.7045 31.377 68.7881 31.5796 68.7881 31.7948V31.9946H60.4916C59.8669 31.9946 59.3586 31.4864 59.3586 30.8617V30.3261C59.3586 29.7671 59.1305 29.2212 58.7326 28.8286ZM32.3354 36.6392V29.1074C32.3354 28.5679 32.5393 28.0549 32.9097 27.6627L35.6359 24.7758C36.0317 24.3567 36.5892 24.1164 37.1657 24.1164H51.7125C52.2693 24.1164 52.7942 24.3318 53.1905 24.7229L58.0505 29.5197C58.2647 29.7311 58.3876 30.025 58.3876 30.3261V30.8617C58.3876 32.0219 59.3315 32.9657 60.4916 32.9657H72.0251V36.6391H32.3354V36.6392Z" fill="white"/>
<path d="M54.5849 29.3242H35.1359C34.8678 29.3242 34.6504 29.5416 34.6504 29.8098C34.6504 30.078 34.8678 30.2953 35.1359 30.2953H54.5849C54.853 30.2953 55.0704 30.078 55.0704 29.8098C55.0704 29.5416 54.853 29.3242 54.5849 29.3242ZM49.0529 64.0936V56.2434H50.464C50.7973 56.2434 51.095 56.0444 51.2226 55.7365C51.3501 55.4286 51.2802 55.0774 51.0446 54.8417L47.1854 50.9825C46.9958 50.7929 46.6883 50.7929 46.4987 50.9825L42.6395 54.8417C42.4039 55.0774 42.334 55.4286 42.4615 55.7365C42.5891 56.0444 42.8869 56.2434 43.2202 56.2434H44.6312V64.0936C44.6312 64.5464 44.9996 64.9147 45.4523 64.9147H48.2318C48.6846 64.9147 49.0529 64.5464 49.0529 64.0936ZM48.0818 63.9436H45.6023V56.0934C45.6023 55.6406 45.234 55.2723 44.7813 55.2723H43.5823L46.8421 52.0125L50.1019 55.2723H48.9029C48.4502 55.2723 48.0818 55.6406 48.0818 56.0934V63.9436Z" fill="white"/>
<path d="M53.3593 64.9348H56.1388C56.5915 64.9348 56.9599 64.5665 56.9599 64.1137V50.3054H58.371C58.7043 50.3054 59.002 50.1065 59.1296 49.7986C59.2571 49.4907 59.1872 49.1394 58.9516 48.9037L55.0924 45.0446C54.9028 44.8549 54.5954 44.8549 54.4057 45.0446L50.5466 48.9037C50.3109 49.1394 50.241 49.4907 50.3686 49.7986C50.4961 50.1065 50.7939 50.3054 51.1272 50.3054H52.5382V64.1137C52.5382 64.5665 52.9066 64.9348 53.3593 64.9348ZM51.4893 49.3344L54.749 46.0745L58.0088 49.3344H56.8098C56.3571 49.3344 55.9888 49.7027 55.9888 50.1554V63.9637H53.5093V50.1554C53.5093 49.7027 53.141 49.3344 52.6882 49.3344H51.4893Z" fill="white"/>
<path d="M61.2675 64.9148H64.047C64.4998 64.9148 64.8681 64.5464 64.8681 64.0937V56.2434H66.2792C66.6125 56.2434 66.9103 56.0445 67.0378 55.7366C67.1653 55.4287 67.0955 55.0774 66.8598 54.8418L63.0006 50.9825C62.811 50.7929 62.5036 50.7929 62.314 50.9825L58.4548 54.8418C58.2191 55.0774 58.1492 55.4287 58.2768 55.7366C58.4043 56.0445 58.7021 56.2434 59.0354 56.2434H60.4465V64.0937C60.4464 64.5464 60.8148 64.9148 61.2675 64.9148ZM59.3975 55.2724L62.6573 52.0126L65.9171 55.2724H64.7181C64.2654 55.2724 63.897 55.6407 63.897 56.0934V63.9437H61.4176V56.0934C61.4176 55.6407 61.0492 55.2724 60.5965 55.2724H59.3975Z" fill="white"/>
</svg>
