<svg width="88" height="90" viewBox="0 0 88 90" fill="none" xmlns="http://www.w3.org/2000/svg">
<rect x="0.301758" width="87" height="90" rx="43.5" fill="white"/>
<path d="M43.0055 31.7548C47.5008 30.061 51.383 28.5982 54.6325 29.9907C54.8593 30.0844 55.1139 30.085 55.3412 29.9923C55.5685 29.8997 55.7501 29.7212 55.8467 29.4956C55.9434 29.27 55.9473 29.0154 55.8576 28.787C55.7679 28.5585 55.5918 28.3746 55.3675 28.275C51.5242 26.6278 47.2327 28.169 42.6899 29.8789C44.2691 27.145 44.7009 23.8495 44.7259 23.6488C44.7438 23.5046 44.7279 23.3582 44.6793 23.2213C44.6307 23.0843 44.5508 22.9606 44.4459 22.86C44.3411 22.7594 44.2142 22.6847 44.0754 22.6418C43.9366 22.5988 43.7897 22.5889 43.6463 22.6128L39.2558 23.3445C39.2774 21.6311 38.6283 20.0755 37.343 18.79C36.613 18.0647 35.7552 17.4804 34.8129 17.0667C34.6834 17.0149 34.5439 16.9928 34.4047 17.002C34.2655 17.0112 34.1302 17.0515 34.0086 17.12C33.887 17.1884 33.7823 17.2832 33.7022 17.3974C33.6221 17.5116 33.5686 17.6423 33.5457 17.7799C33.5379 17.8278 32.6625 22.5995 29.7998 22.5995C27.0612 22.5995 23.2838 19.4279 22.0597 18.2061C21.9154 18.0617 21.7277 17.9686 21.5254 17.9411C21.3231 17.9136 21.1173 17.9532 20.9397 18.0539C20.762 18.1545 20.6223 18.3106 20.5418 18.4982C20.4614 18.6859 20.4447 18.8947 20.4943 19.0928L22.3557 26.5384C21.2206 26.0535 20.1525 25.4245 19.1779 24.6668C19.0202 24.5424 18.8266 24.4722 18.6258 24.4666C18.425 24.461 18.2278 24.5203 18.0634 24.6357C17.899 24.7512 17.7762 24.9166 17.7134 25.1074C17.6505 25.2981 17.6508 25.5041 17.7143 25.6947C17.7454 25.788 18.4975 28.0019 20.4689 30.2196C22.299 32.2786 25.5654 34.7329 30.7332 34.7329C35.1013 34.7329 39.3006 33.1507 43.0055 31.7548ZM29.7998 24.4662C31.7037 24.4662 33.2833 23.3196 34.368 21.1502C34.6568 20.565 34.8958 19.9565 35.0823 19.3311C36.1977 20.0802 37.8107 21.6528 37.2847 24.2831C37.255 24.4313 37.2618 24.5844 37.3044 24.7294C37.3471 24.8744 37.4243 25.0069 37.5294 25.1154C37.6345 25.224 37.7644 25.3054 37.9079 25.3527C38.0514 25.3999 38.2043 25.4116 38.3533 25.3868L42.6503 24.6707C42.2135 26.6441 41.1964 29.6364 39.3499 30.9724C38.0602 29.7257 35.9285 27.3988 35.3715 25.1732C35.3298 25.006 35.2427 24.8537 35.1198 24.733C34.9968 24.6124 34.8429 24.5281 34.675 24.4895C34.5071 24.4509 34.3318 24.4596 34.1685 24.5145C34.0053 24.5694 33.8603 24.6684 33.7499 24.8005L33.6726 24.8928C32.5312 26.2578 31.4512 27.5489 29.6546 28.1952C27.8975 28.1067 26.1573 27.8085 24.471 27.3069L23.0168 21.486C24.8255 22.8661 27.4329 24.4662 29.7998 24.4662ZM21.9111 29.0322C21.6196 28.7073 21.3448 28.3679 21.0878 28.0152C25.2826 30.0032 29.5688 30.0645 29.7926 30.0662C29.895 30.0667 29.9969 30.0506 30.0942 30.0186C31.9025 29.4174 33.1057 28.3593 34.1426 27.2123C34.9627 28.937 36.3019 30.5373 37.4624 31.7273C35.2697 32.3936 33.029 32.866 30.7334 32.866C27.1663 32.8663 24.1982 31.5763 21.9111 29.0322ZM70.7128 54.8465C70.7978 54.7175 70.8495 54.5695 70.8632 54.4157C70.877 54.2618 70.8523 54.107 70.7914 53.9651C69.5386 51.0416 67.0444 48.8857 63.5787 47.7306C62.7106 47.4431 61.8212 47.2246 60.9187 47.0772C63.295 44.8695 67.7301 40.53 69.8007 37.0788C69.9281 36.8665 69.9659 36.6124 69.9058 36.3722C69.8458 36.1321 69.6928 35.9256 69.4806 35.7982C69.2683 35.6709 69.0141 35.6331 68.774 35.6931C68.5338 35.7531 68.3274 35.9061 68.2 36.1184C66.2246 39.4109 61.7584 43.7484 59.4924 45.8498C59.3454 44.8664 59.1146 43.8974 58.8023 42.9535C57.6473 39.4877 55.4913 36.9936 52.5678 35.7407C52.4258 35.6798 52.2708 35.6552 52.1169 35.6689C51.963 35.6827 51.8148 35.7345 51.6859 35.8196C51.5569 35.9048 51.4511 36.0206 51.3779 36.1568C51.3048 36.2929 51.2666 36.4451 51.2667 36.5996V40.112C48.8928 39.657 43.352 38.8763 38.8381 40.3809C38.7055 40.4251 38.5846 40.4986 38.4841 40.5958C38.3837 40.693 38.3064 40.8115 38.2579 40.9426C38.2094 41.0736 38.191 41.2139 38.204 41.3531C38.217 41.4922 38.261 41.6267 38.3329 41.7465L40.6616 45.6273L33.9719 49.8083C33.8396 49.8909 33.7302 50.0054 33.6535 50.1413C33.5769 50.2771 33.5355 50.43 33.5332 50.5859C33.5309 50.7419 33.5677 50.896 33.6402 51.034C33.7128 51.1721 33.8188 51.2898 33.9485 51.3763L39.0966 54.8084L38.2024 67.3334C38.1929 67.4669 38.2121 67.6008 38.2589 67.7261C38.3056 67.8514 38.3788 67.9652 38.4734 68.0598C38.568 68.1544 38.6818 68.2276 38.8071 68.2743C38.9324 68.3211 39.0663 68.3404 39.1998 68.3308L51.7248 67.4363L55.1569 72.5844C55.2421 72.7123 55.3576 72.8171 55.4931 72.8896C55.6285 72.9621 55.7798 73 55.9334 73H55.9472C56.1032 72.9977 56.2561 72.9564 56.3919 72.8797C56.5278 72.8031 56.6423 72.6937 56.7249 72.5614L60.9059 65.8716L64.7867 68.2001C64.9065 68.2718 65.0409 68.3158 65.18 68.3287C65.3191 68.3417 65.4593 68.3232 65.5903 68.2747C65.7213 68.2262 65.8397 68.149 65.9369 68.0486C66.0341 67.9483 66.1075 67.8274 66.1517 67.6949C67.6567 63.181 66.875 57.6403 66.4206 55.2662H69.9336C70.0881 55.2662 70.2401 55.2279 70.3761 55.1546C70.5121 55.0813 70.6278 54.9755 70.7128 54.8465ZM65.2669 53.3998C65.125 53.3998 64.9851 53.4321 64.8576 53.4943C64.7301 53.5565 64.6185 53.647 64.5312 53.7587C64.4439 53.8705 64.3833 54.0008 64.3539 54.1395C64.3244 54.2782 64.327 54.4219 64.3614 54.5595C64.3781 54.6266 65.9038 60.8525 64.7008 65.9719L61.0804 63.7996C60.8706 63.6737 60.6199 63.6352 60.382 63.6924C60.1442 63.7496 59.9383 63.8978 59.8087 64.1052L55.9081 70.346L52.9766 65.9488C52.8914 65.821 52.7759 65.7162 52.6404 65.6437C52.505 65.5712 52.3537 65.5333 52.2001 65.5333C52.178 65.5333 52.1557 65.5341 52.1335 65.5357L40.1408 66.3923L40.9974 54.3996C41.0091 54.2352 40.9771 54.0705 40.9045 53.9224C40.832 53.7743 40.7215 53.6481 40.5843 53.5566L36.1871 50.6251L42.4279 46.7245C42.6353 46.5949 42.7835 46.389 42.8407 46.1512C42.8979 45.9134 42.8594 45.6626 42.7335 45.4529L40.5613 41.8325C45.6726 40.6332 51.9068 42.1551 51.9736 42.1718C52.1112 42.2062 52.2549 42.2088 52.3936 42.1794C52.5324 42.15 52.6626 42.0893 52.7744 42.002C52.8862 41.9147 52.9767 41.8031 53.0389 41.6756C53.1011 41.5482 53.1334 41.4082 53.1334 41.2663V38.1549C57.0938 40.7522 57.6938 45.9938 57.7841 47.4291L56.9146 48.2986C52.992 44.1181 47.7667 44.0664 47.5334 44.0664C47.2858 44.0664 47.0484 44.1647 46.8734 44.3397C46.6983 44.5148 46.6 44.7522 46.6 44.9997C46.6 45.2472 46.6983 45.4846 46.8734 45.6597C47.0484 45.8347 47.2858 45.9331 47.5334 45.9331C47.5769 45.9331 51.257 45.9681 54.4564 48.5581C47.4195 48.3312 43.5013 50.6243 43.3198 50.7329C43.1077 50.8601 42.9548 51.0663 42.8946 51.3061C42.8345 51.546 42.8719 51.7999 42.9988 52.0122C43.1257 52.2244 43.3317 52.3776 43.5714 52.4382C43.8112 52.4987 44.0652 52.4616 44.2776 52.3351C44.3182 52.3111 48.0761 50.1453 54.7729 50.4404L45.0067 60.2067C44.8316 60.3817 44.7333 60.6191 44.7333 60.8667C44.7333 61.1142 44.8316 61.3516 45.0067 61.5266C45.1817 61.7017 45.4191 61.8 45.6667 61.8C45.9142 61.8 46.1516 61.7017 46.3267 61.5266L56.0928 51.7604C56.3875 58.4514 54.2261 62.2085 54.1982 62.2556C54.0712 62.4681 54.0338 62.7223 54.0942 62.9623C54.1546 63.2024 54.3079 63.4086 54.5204 63.5357C54.7328 63.6627 54.9871 63.7001 55.2271 63.6397C55.4672 63.5793 55.6734 63.426 55.8004 63.2136C55.9091 63.0325 58.2016 59.1154 57.9755 52.0807C60.5446 55.2678 60.6002 58.9532 60.6002 59.0021C60.6005 59.2496 60.6991 59.4869 60.8743 59.6617C61.0496 59.8365 61.2871 59.9346 61.5346 59.9343C61.7821 59.934 62.0194 59.8354 62.1943 59.6602C62.3691 59.4849 62.4671 59.2474 62.4668 58.9999C62.4668 58.7665 62.4152 53.5412 58.2346 49.6186L59.104 48.7491C60.5414 48.8396 65.7815 49.4402 68.3783 53.3998H65.2669ZM60.6002 27.2662C60.7188 27.2661 60.8364 27.2434 60.9465 27.1992C61.1551 27.1157 66.0683 25.1076 67.1054 20.9589C67.1362 20.8397 67.143 20.7155 67.1255 20.5936C67.108 20.4718 67.0666 20.3545 67.0036 20.2487C66.9407 20.1429 66.8574 20.0506 66.7586 19.9771C66.6598 19.9037 66.5474 19.8505 66.4279 19.8206C66.3085 19.7907 66.1843 19.7848 66.0625 19.8032C65.9408 19.8215 65.8239 19.8638 65.7185 19.9275C65.6132 19.9912 65.5215 20.0752 65.4487 20.1745C65.3759 20.2738 65.3235 20.3866 65.2945 20.5062C64.4904 23.7224 60.2947 25.4493 60.252 25.4666C60.0507 25.5473 59.8838 25.6957 59.78 25.8861C59.6762 26.0765 59.6419 26.2972 59.6831 26.5101C59.7243 26.7231 59.8384 26.915 60.0057 27.053C60.1731 27.191 60.3833 27.2664 60.6002 27.2662ZM70.2227 20.7788C69.9873 20.7021 69.7312 20.7221 69.5106 20.8343C69.2899 20.9465 69.1229 21.1417 69.0462 21.377C67.107 27.3305 61.3488 29.1471 61.2657 29.1721C61.1476 29.2065 61.0374 29.264 60.9415 29.3412C60.8456 29.4183 60.7659 29.5137 60.7071 29.6218C60.6482 29.73 60.6113 29.8486 60.5985 29.9711C60.5857 30.0935 60.5972 30.2172 60.6324 30.3352C60.6676 30.4531 60.7258 30.563 60.8037 30.6583C60.8815 30.7537 60.9774 30.8327 61.0859 30.8909C61.1944 30.949 61.3133 30.9851 61.4358 30.9971C61.5584 31.0091 61.682 30.9967 61.7997 30.9607C62.0751 30.8791 68.5672 28.8748 70.821 21.9552C70.8976 21.7199 70.8777 21.4637 70.7655 21.2431C70.6533 21.0225 70.458 20.8555 70.2227 20.7788ZM27.8664 50.013C27.912 49.8992 27.9346 49.7776 27.9331 49.655C27.9317 49.5324 27.906 49.4113 27.8578 49.2987C27.8095 49.186 27.7395 49.0839 27.6517 48.9983C27.564 48.9127 27.4603 48.8452 27.3464 48.7997C26.5519 48.4549 25.798 48.0228 25.0988 47.5116C24.053 46.751 22.7194 45.4966 22.3052 43.84C22.2762 43.7204 22.2238 43.6076 22.151 43.5083C22.0783 43.409 21.9866 43.325 21.8812 43.2613C21.7759 43.1976 21.6589 43.1553 21.5372 43.137C21.4154 43.1186 21.2912 43.1245 21.1718 43.1544C21.0523 43.1843 20.94 43.2375 20.8412 43.3109C20.7424 43.3844 20.6591 43.4767 20.5961 43.5825C20.5331 43.6883 20.4917 43.8056 20.4742 43.9274C20.4568 44.0493 20.4636 44.1735 20.4943 44.2927C21.5315 48.4414 26.4444 50.4495 26.6532 50.533C26.767 50.5787 26.8887 50.6014 27.0113 50.6C27.1339 50.5985 27.255 50.5729 27.3677 50.5246C27.4804 50.4763 27.5825 50.4063 27.6681 50.3185C27.7536 50.2307 27.821 50.1269 27.8664 50.013ZM18.5538 44.7106C18.475 44.4779 18.3076 44.2856 18.088 44.1755C17.8684 44.0653 17.6142 44.0463 17.3806 44.1224C17.1469 44.1985 16.9528 44.3636 16.8401 44.582C16.7275 44.8004 16.7056 45.0543 16.779 45.2888C19.0328 52.2084 25.5249 54.2124 25.8002 54.2943C26.037 54.3638 26.2917 54.3368 26.5086 54.2191C26.7255 54.1013 26.8869 53.9025 26.9576 53.666C27.0282 53.4296 27.0024 53.1747 26.8856 52.9573C26.7689 52.7399 26.5708 52.5775 26.3347 52.5058C26.2765 52.4883 20.4972 50.6772 18.5538 44.7106Z" fill="#65991D"/>
</svg>
