<svg width="90" height="90" viewBox="0 0 90 90" fill="none" xmlns="http://www.w3.org/2000/svg">
<rect width="90" height="90" rx="45" fill="#65991D"/>
<path d="M74.3568 67.4085V57.9219C73.5201 58.8743 72.8259 59.9777 72.3018 61.1879C72.2118 61.3989 72.0661 61.5721 71.8854 61.6832C71.7046 61.7942 71.498 61.8374 71.2947 61.8067C71.0913 61.776 70.9016 61.6729 70.7522 61.512C70.6028 61.3511 70.5013 61.1405 70.4621 60.91C70.1658 59.1507 69.2997 57.5847 68.0372 56.5259C68.3329 57.8867 68.4834 59.2836 68.4854 60.686C68.4853 60.8634 68.4484 61.0383 68.3777 61.1962C68.307 61.3541 68.2046 61.4905 68.0788 61.5942C67.9531 61.6979 67.8076 61.766 67.6544 61.7927C67.5012 61.8195 67.3446 61.8042 67.1976 61.7481C66.1215 61.3897 65.1602 60.679 64.4322 59.7034C63.1213 61.0386 61.4327 61.7856 59.6783 61.8064C59.473 61.8062 59.2729 61.7321 59.1065 61.5946C58.94 61.457 58.8155 61.263 58.7506 61.04C58.3558 59.3519 58.4692 57.5608 59.0726 55.9556C57.2929 57.7598 55.8063 59.9106 54.6817 62.3083C54.583 62.5339 54.4207 62.7147 54.221 62.8214C54.0213 62.9282 53.7961 62.9547 53.5816 62.8966C53.3672 62.8386 53.1761 62.6993 53.0394 62.5014C52.9027 62.3036 52.8283 62.0587 52.8283 61.8064C52.8554 60.7275 52.98 59.6548 53.2002 58.6054C52.5869 59.2934 52.1092 60.1234 51.7989 61.04C51.729 61.2791 51.5907 61.4842 51.4065 61.6222C51.2222 61.7602 51.0027 61.823 50.7833 61.8004C50.564 61.7779 50.3578 61.6713 50.1979 61.498C50.0381 61.3246 49.9339 61.0946 49.9024 60.8451C49.6629 58.61 48.9297 56.4818 47.772 54.6615C48.2769 57.6214 47.9557 60.6882 46.8541 63.4276C46.7376 63.693 46.5338 63.8945 46.2876 63.9878C46.166 64.0359 46.0372 64.0554 45.9089 64.0452C45.7807 64.035 45.6555 63.9953 45.5409 63.9284C44.9394 63.6345 44.4042 63.1875 43.9761 62.6214C43.548 62.0553 43.2381 61.385 43.07 60.6613C42.9353 59.9667 42.931 59.2472 43.0573 58.5504C42.1075 59.4825 41.4124 60.7082 41.0551 62.0809C40.9913 62.3631 40.8339 62.6057 40.6163 62.7571C40.3988 62.9086 40.1383 62.9571 39.89 62.8922C39.6418 62.8273 39.4254 62.6542 39.2869 62.4096C39.1483 62.165 39.0985 61.8683 39.1479 61.5823C39.4802 59.7957 39.4919 57.9503 39.1822 56.1584C38.8082 56.8646 38.3657 57.5201 37.8631 58.1124C37.7451 58.2472 37.599 58.3453 37.4386 58.3973C37.2783 58.4494 37.1089 58.4537 36.9467 58.4098C36.7845 58.3659 36.6347 58.2753 36.5117 58.1466C36.3886 58.0179 36.2963 57.8553 36.2435 57.6743C36.0552 57.0327 35.7667 56.4355 35.3922 55.9119C35.6366 57.0766 35.633 58.2915 35.3818 59.4544C35.1306 60.6172 34.6392 61.694 33.9488 62.594C33.7618 62.7965 33.5142 62.9093 33.2569 62.9093C32.9996 62.9093 32.752 62.7965 32.5651 62.594C32.0158 61.9372 31.5977 61.1516 31.3398 60.2914C31.082 59.4313 30.9905 58.5173 31.0718 57.6127C30.2483 58.102 29.6134 58.9248 29.2908 59.9207C29.2374 60.1011 29.1446 60.2629 29.0214 60.3908C28.8982 60.5188 28.7485 60.6086 28.5865 60.6519C28.4245 60.6952 28.2555 60.6905 28.0955 60.6382C27.9356 60.586 27.7899 60.4879 27.6722 60.3532C27.1823 59.7786 26.7966 59.0987 26.5375 58.3525C26.2783 57.6064 26.1508 56.8089 26.1623 56.006C24.4841 57.932 24.4498 61.7604 24.4498 61.8064C24.4531 62.1035 24.3531 62.39 24.1718 62.6027C23.9906 62.8155 23.743 62.9371 23.4835 62.9408C23.2239 62.9445 22.9737 62.83 22.7879 62.6225C22.6021 62.4151 22.4959 62.1315 22.4927 61.8344V61.8064C22.6078 59.4499 22.086 57.1101 20.9984 55.1052C21.373 57.1496 21.1768 59.277 20.4377 61.1868C20.3211 61.4521 20.1173 61.6536 19.8711 61.747C19.7495 61.7947 19.6207 61.8141 19.4925 61.8039C19.3643 61.7937 19.2391 61.7541 19.1244 61.6876C18.5282 61.2989 18.0136 60.7652 17.6171 60.124C17.2206 59.4828 16.9518 58.7499 16.8297 57.9768C16.4619 58.292 16.1632 58.7009 15.9572 59.1711C15.7511 59.6413 15.6435 60.1599 15.6427 60.686V67.4085H13.6855V60.686C13.6855 56.5639 17.1428 55.1959 17.2906 55.1421C17.4373 55.0851 17.5939 55.0692 17.7471 55.0957C17.9004 55.1222 18.0458 55.1904 18.1713 55.2945C18.2973 55.3983 18.4 55.535 18.4707 55.6932C18.5415 55.8513 18.5784 56.0266 18.5784 56.2043C18.6061 57.0429 18.7843 57.8659 19.1019 58.6222C19.2841 57.5375 19.2619 56.4208 19.0366 55.3469C18.8112 54.2729 18.3881 53.2664 17.7955 52.3949C17.6764 52.2131 17.6083 51.994 17.6004 51.7669C17.5925 51.5398 17.6452 51.3152 17.7513 51.1232C17.8575 50.9311 18.0122 50.7805 18.1949 50.6915C18.3776 50.6024 18.5796 50.5791 18.7741 50.6246C18.9512 50.665 22.156 51.4649 23.6718 56.1651C24.0096 55.3612 24.4957 54.6508 25.0967 54.083C25.6976 53.5152 26.3991 53.1036 27.1526 52.8767C27.3226 52.8283 27.5008 52.8331 27.6687 52.8905C27.8365 52.9479 27.9878 53.0559 28.1068 53.2031C28.2257 53.3503 28.308 53.5313 28.345 53.7274C28.382 53.9234 28.3724 54.1272 28.3171 54.3175C28.0671 55.3193 28.0671 56.3812 28.3171 57.383C28.769 56.6654 29.3645 56.0821 30.0537 55.6821C30.7428 55.2821 31.5057 55.077 32.2784 55.0839C32.4333 55.084 32.5861 55.1263 32.724 55.2072C32.8619 55.2882 32.981 55.4054 33.0716 55.5494C33.1622 55.6934 33.2216 55.8599 33.245 56.0353C33.2684 56.2107 33.255 56.39 33.206 56.5583C32.9466 57.5968 32.9585 58.6995 33.2403 59.7302C33.6846 58.4687 33.9341 56.3141 32.4183 53.4201C32.3156 53.2238 32.2678 52.9963 32.2814 52.7681C32.295 52.5398 32.3693 52.3218 32.4942 52.1433C32.6192 51.9649 32.7889 51.8344 32.9806 51.7697C33.1722 51.7049 33.3765 51.7088 33.5662 51.7809C35.1206 52.4472 36.4529 53.6559 37.3747 55.2363C37.8188 54.5343 38.0868 53.7068 38.1498 52.843C38.1497 52.6026 38.2173 52.3684 38.3424 52.1753C38.4675 51.9822 38.6436 51.8402 38.8446 51.7705C39.0456 51.7008 39.2609 51.707 39.4586 51.7881C39.6563 51.8693 39.826 52.0211 39.9425 52.2212C40.7381 53.7861 41.2051 55.5413 41.3066 57.3482C42.258 56.2554 43.4538 55.4837 44.7629 55.1175C44.959 55.0616 45.1653 55.0765 45.3537 55.1602C45.542 55.2439 45.7031 55.3924 45.8148 55.5851C45.9266 55.7778 45.9834 56.0055 45.9777 56.2367C45.9719 56.4679 45.9038 56.6914 45.7826 56.8765C45.1634 57.8143 44.8758 58.985 44.9772 60.1549C45.0651 60.5613 45.2525 60.9306 45.5174 61.2193C46.046 59.5756 46.2056 57.8063 45.9816 56.0736C45.7577 54.3409 45.1572 52.7004 44.2355 51.3025C44.1002 51.1093 44.0245 50.8703 44.0204 50.6228C44.0163 50.3752 44.0839 50.133 44.2127 49.9341C44.3415 49.7352 44.5242 49.5907 44.7323 49.5233C44.9403 49.4559 45.1621 49.4692 45.3628 49.5613C46.7954 50.3604 48.0636 51.4982 49.0838 52.8998C50.104 54.3014 50.853 55.9348 51.2812 57.6922C52.1139 56.5131 53.2219 55.6288 54.4762 55.1421C54.6485 55.0764 54.8334 55.0669 55.0102 55.1147C55.187 55.1625 55.3486 55.2656 55.4771 55.4126C55.6056 55.5596 55.6958 55.7446 55.7377 55.9469C55.7795 56.1493 55.7714 56.361 55.7141 56.5583C55.7141 56.5583 55.7014 56.6032 55.6799 56.6794C57.1785 54.5673 59.0958 52.8952 61.2724 51.8022C61.4706 51.7114 61.6894 51.6973 61.8953 51.7621C62.1012 51.827 62.2829 51.9671 62.4127 52.1612C62.5425 52.3553 62.6134 52.5927 62.6144 52.8372C62.6154 53.0817 62.5465 53.3198 62.4183 53.5153C61.7754 54.5024 60.3398 57.2664 60.4611 59.4759C61.4642 59.2888 63.1297 58.7174 63.6386 56.9718C63.7096 56.7158 63.8586 56.4975 64.0583 56.3568C64.2581 56.216 64.4954 56.1621 64.727 56.2048C64.9586 56.2476 65.1691 56.3842 65.3201 56.5898C65.4711 56.7953 65.5526 57.0561 65.5497 57.3247C65.6 57.6262 65.7028 57.913 65.8519 58.168C66.001 58.423 66.1934 58.6411 66.4177 58.8093C66.2308 57.1163 65.8032 55.3606 65.1123 54.9662C64.8993 54.8452 64.7321 54.6394 64.6419 54.3875C64.5518 54.1355 64.5448 53.8546 64.6224 53.5972C64.7 53.3399 64.8568 53.1236 65.0634 52.989C65.2701 52.8543 65.5125 52.8104 65.7454 52.8655C66.9995 53.1964 68.1773 53.8304 69.1999 54.7251C70.2225 55.6198 71.0663 56.7545 71.6746 58.053C72.5553 56.6368 73.8617 55.0839 75.3354 55.0839C75.5949 55.0839 75.8438 55.2019 76.0273 55.412C76.2109 55.6222 76.314 55.9071 76.314 56.2043V67.4085H74.3568ZM44.257 33.796C43.988 33.7977 43.7215 33.7365 43.4739 33.6163C43.2262 33.4961 43.0026 33.3194 42.8166 33.0968C42.4282 32.655 42.1568 32.0965 42.0337 31.4857C41.5095 31.3221 41.0352 30.9951 40.6637 30.5412C40.4612 30.2725 40.3087 29.9593 40.2155 29.6209C40.1223 29.2824 40.0903 28.9258 40.1216 28.5727C40.1528 28.2197 40.2466 27.8776 40.3972 27.5674C40.5477 27.2572 40.752 26.9855 40.9974 26.7687C41.2025 26.5388 41.449 26.3629 41.7196 26.2533C41.708 25.7674 41.7886 25.2843 41.9559 24.8375C42.1231 24.3907 42.373 23.9907 42.6884 23.6652C43.1894 23.0313 43.8866 22.6462 44.6318 22.5918C45.0407 22.5908 45.4337 22.7729 45.7268 23.0993C46.0721 23.6011 46.3101 24.1884 46.4217 24.8142C46.5333 25.4401 46.5155 26.0872 46.3698 26.7037C46.9128 26.5587 47.4779 26.5616 48.0197 26.7122C48.5616 26.8629 49.065 27.157 49.4894 27.5709C49.5393 27.6292 50.6862 29.0387 48.8886 31.0252C48.5935 31.3743 48.2358 31.6461 47.8402 31.8217C47.4445 31.9973 47.0203 32.0727 46.5968 32.0425C46.4913 32.3478 46.3294 32.6234 46.1222 32.8503C45.7199 33.3085 45.2099 33.6226 44.6543 33.7545C44.5232 33.7818 44.3903 33.7957 44.257 33.796ZM43.9635 30.9232C43.9668 31.042 43.9922 31.1585 44.0379 31.2651C44.0836 31.3718 44.1486 31.4661 44.2286 31.5417C44.3317 31.5372 44.4327 31.5079 44.5251 31.4556C44.6176 31.4032 44.6993 31.3291 44.7649 31.2381C44.7776 31.2134 44.7766 31.1339 44.7248 31.0016C44.6442 30.7891 44.6232 30.5531 44.6647 30.3263C44.7061 30.0995 44.808 29.893 44.9562 29.7352C45.1044 29.5774 45.2917 29.4762 45.4923 29.4453C45.6929 29.4145 45.8969 29.4556 46.0762 29.563C46.2892 29.7535 46.5576 29.844 46.8267 29.8161C47.0959 29.7882 47.3457 29.6441 47.5254 29.4129C47.65 29.281 47.7607 29.1328 47.8552 28.9715C46.9919 28.8143 46.1074 28.933 45.2992 29.3143C45.1202 29.3921 44.9252 29.4081 44.7384 29.3603C44.5515 29.3125 44.381 29.2029 44.248 29.0453C44.115 28.8876 44.0253 28.6887 43.99 28.4733C43.9547 28.2578 43.9754 28.0352 44.0496 27.8331C44.4112 26.9193 44.5466 25.9092 44.441 24.9133C44.299 25.0158 44.1677 25.1365 44.0496 25.273C43.8426 25.4727 43.7089 25.7543 43.6751 26.0619C43.6414 26.3694 43.7101 26.6802 43.8676 26.9323C43.9566 27.1418 43.9863 27.3779 43.9527 27.6077C43.919 27.8375 43.8236 28.0495 43.6798 28.2143C43.5359 28.3791 43.3508 28.4885 43.1501 28.5272C42.9495 28.5659 42.7432 28.532 42.5602 28.4303C42.5013 28.3889 42.4335 28.3671 42.3645 28.3675C42.1993 28.5191 42.0917 28.7379 42.064 28.9782C42.1935 29.1676 42.3817 29.2928 42.5895 29.3277L42.6023 29.3143C42.7884 29.116 43.0346 29.0085 43.2887 29.0144C43.5429 29.0203 43.785 29.1392 43.964 29.346C44.1429 29.5527 44.2445 29.8311 44.2473 30.1221C44.2502 30.4132 44.154 30.694 43.9791 30.9053L43.9635 30.9232ZM71.1853 52.843C71.054 52.8429 70.923 52.8294 70.7939 52.8027C70.2365 52.6719 69.7247 52.3577 69.3211 51.8985C69.114 51.6715 68.9521 51.396 68.8465 51.0907C68.4231 51.1193 67.9993 51.0432 67.6039 50.8677C67.2084 50.6922 66.8506 50.4213 66.5547 50.0734C64.7571 48.0869 65.9039 46.6774 65.9539 46.618C66.3781 46.2041 66.8814 45.91 67.423 45.7593C67.9647 45.6087 68.5297 45.6058 69.0726 45.7508C68.9264 45.1346 68.9083 44.4878 69.0196 43.8621C69.1309 43.2364 69.3685 42.6492 69.7135 42.1476C70.007 41.8202 70.4008 41.6376 70.8105 41.6389C71.5553 41.6913 72.2522 42.0768 72.751 42.7122C73.0665 43.0377 73.3166 43.4376 73.484 43.8844C73.6515 44.3313 73.7322 44.8144 73.7208 45.3004C73.9914 45.4094 74.2379 45.5849 74.4429 45.8147C74.6883 46.0317 74.8925 46.3037 75.0431 46.6141C75.1936 46.9246 75.2873 47.2668 75.3184 47.6201C75.3495 47.9733 75.3175 48.3301 75.2242 48.6687C75.1308 49.0073 74.9782 49.3206 74.7757 49.5894C74.4044 50.0434 73.93 50.3701 73.4057 50.5327C73.2827 51.1433 73.0113 51.7015 72.6228 52.1428C72.4371 52.3648 72.2139 52.5414 71.9668 52.6618C71.7197 52.7821 71.4538 52.8438 71.1853 52.843ZM69.8241 48.4734C69.9865 48.4735 70.1464 48.5199 70.2893 48.6084C70.4321 48.6969 70.5535 48.8248 70.6425 48.9804C70.7314 49.136 70.7851 49.3146 70.7987 49.4999C70.8123 49.6852 70.7854 49.8715 70.7205 50.042C70.6869 50.1127 70.67 50.1923 70.6715 50.2728C70.8066 50.4557 70.9986 50.5711 71.2068 50.5944C71.3671 50.4378 71.469 50.2169 71.4916 49.977L71.4818 49.9658C71.2962 49.7626 71.1879 49.4839 71.1801 49.19C71.1724 48.8961 71.2658 48.6105 71.4404 48.3948C71.6149 48.1791 71.8565 48.0506 72.113 48.037C72.3696 48.0234 72.6205 48.1258 72.8117 48.3222H72.8175C72.8899 48.3491 73.1111 48.2717 73.343 47.9984C73.3685 47.9199 73.3019 47.6622 73.0612 47.3911C73.0575 47.3864 73.0532 47.3822 73.0485 47.3788C72.9826 47.386 72.9187 47.4085 72.8606 47.4449C72.6775 47.547 72.4711 47.5812 72.2702 47.5427C72.0694 47.5042 71.884 47.3948 71.74 47.2299C71.596 47.065 71.5005 46.8528 71.4668 46.6228C71.4332 46.3928 71.463 46.1565 71.5522 45.9469C71.7034 45.7014 71.7706 45.4009 71.741 45.1024C71.7114 44.804 71.5871 44.5284 71.3918 44.3279C71.2736 44.1911 71.1423 44.0701 71.0003 43.9671C70.895 44.9638 71.0304 45.9744 71.3918 46.8892C71.4635 47.0907 71.4823 47.3119 71.4461 47.5256C71.4098 47.7392 71.32 47.9362 71.1875 48.0923C71.0551 48.2485 70.8858 48.3571 70.7003 48.4049C70.5148 48.4526 70.3212 48.4375 70.1431 48.3614C69.334 47.9793 68.4487 47.8595 67.5841 48.0152C67.6787 48.1765 67.7894 48.3247 67.9139 48.4566C68.0938 48.687 68.3434 48.8306 68.6122 48.8585C68.881 48.8863 69.1491 48.7964 69.3622 48.6068C69.5043 48.5197 69.6629 48.4739 69.8241 48.4734Z" fill="white"/>
<path d="M19.8709 50.6022C19.3518 50.6062 18.8523 50.3759 18.4803 49.9614C18.0838 49.5363 17.7984 48.9931 17.6564 48.3928C17.1231 48.252 16.6356 47.9412 16.2502 47.4964C16.0086 47.2297 15.8293 46.8978 15.7288 46.5312C15.6283 46.1645 15.6097 45.7749 15.6748 45.3979C15.789 44.7598 16.0635 44.1737 16.4645 43.7117C16.6626 43.4745 16.9033 43.2894 17.17 43.1694C17.1436 42.6843 17.2093 42.1984 17.3627 41.7452C17.5161 41.292 17.7535 40.8822 18.0586 40.5443C19.7946 38.4861 21.0246 39.7981 21.0755 39.8552C21.4378 40.3417 21.6954 40.9186 21.8276 41.5397C21.9598 42.1608 21.963 42.8088 21.8368 43.4316C22.3752 43.2649 22.9402 43.2447 23.4866 43.3725C24.033 43.5003 24.5458 43.7726 24.9839 44.1677C25.2693 44.5031 25.4288 44.9531 25.4282 45.4214C25.4078 45.8443 25.3144 46.2583 25.1535 46.6397C24.9926 47.021 24.7673 47.3621 24.4907 47.6432C24.2055 48.003 23.856 48.2884 23.466 48.4799C23.0759 48.6715 22.6545 48.7648 22.2302 48.7535C22.135 49.0634 21.9817 49.3457 21.7811 49.5804C21.5386 49.8885 21.2446 50.1377 20.9165 50.3132C20.5884 50.4887 20.2328 50.587 19.8709 50.6022ZM19.5568 47.7452C19.5333 47.8225 19.5998 48.0813 19.8396 48.3468C19.9428 48.3386 20.0434 48.3057 20.1347 48.2501C20.2261 48.1945 20.3063 48.1175 20.37 48.0242C20.3817 48.0006 20.3778 47.9211 20.323 47.8001C20.2338 47.5904 20.2039 47.3541 20.2376 47.1242C20.2712 46.8942 20.3667 46.6819 20.5107 46.517C20.6547 46.3521 20.8401 46.2428 21.041 46.2043C21.2419 46.1657 21.4482 46.1999 21.6313 46.3021C21.8516 46.4831 22.1237 46.5615 22.3925 46.5216C22.6614 46.4816 22.907 46.3263 23.0796 46.087C23.1993 45.9519 23.305 45.8015 23.3947 45.6388C22.5246 45.5193 21.6424 45.6742 20.8436 46.087C20.6675 46.1694 20.4742 46.1912 20.2874 46.1499C20.1006 46.1085 19.9284 46.0056 19.7919 45.8539C19.6553 45.7022 19.5603 45.5082 19.5186 45.2957C19.4768 45.0832 19.4901 44.8613 19.5568 44.6573C19.8911 43.7311 19.9958 42.7173 19.8591 41.7274C19.718 41.8358 19.5886 41.9629 19.4736 42.1061C19.2724 42.3121 19.1469 42.5979 19.1226 42.9056C19.0983 43.2134 19.1768 43.5203 19.3425 43.7643C19.4378 43.9695 19.475 44.2035 19.4491 44.434C19.4231 44.6645 19.3351 44.88 19.1974 45.0508C19.0597 45.2215 18.879 45.3389 18.6804 45.3869C18.4818 45.4348 18.2751 45.4109 18.0889 45.3183C18.0272 45.2796 17.9576 45.2607 17.8873 45.2635C17.7264 45.418 17.6234 45.6374 17.5996 45.8763C17.7357 46.0606 17.9291 46.1771 18.1388 46.2012L18.1486 46.19C18.3281 45.9753 18.5747 45.8511 18.8342 45.8446C19.0937 45.838 19.3448 45.9498 19.5323 46.1553C19.7198 46.3608 19.8284 46.6431 19.834 46.9402C19.8397 47.2374 19.7421 47.5249 19.5626 47.7396L19.5568 47.7452ZM28.2425 44.7761C27.6801 44.7755 27.1243 44.6365 26.6129 44.3684C26.1015 44.1003 25.6465 43.7095 25.2786 43.2224C24.9107 42.7353 24.6386 42.1633 24.4807 41.5452C24.3228 40.9271 24.2828 40.2774 24.3635 39.6401C23.4066 39.5677 22.5061 39.0956 21.8331 38.3133C21.1601 37.5311 20.7613 36.4932 20.7124 35.3966C20.6635 34.3 20.9679 33.221 21.5679 32.3644C22.1679 31.5078 23.0216 30.9331 23.9672 30.7496C23.7321 29.6853 23.8464 28.5594 24.2883 27.5852C24.7303 26.611 25.4691 25.8564 26.3647 25.4646C27.2604 25.0742 28.2499 25.073 29.1464 25.4611C30.0428 25.8492 30.7841 26.5997 31.2301 27.571C32.0416 26.9837 33.0133 26.7583 33.9604 26.9377C34.9075 27.1171 35.764 27.6887 36.3671 28.5439C36.9702 29.3991 37.2777 30.4783 37.2312 31.5761C37.1848 32.674 36.7876 33.714 36.1151 34.4985C36.8518 35.2012 37.3376 36.1891 37.4804 37.2748C37.6231 38.3604 37.4128 39.4683 36.8893 40.3882C36.3659 41.3081 35.5658 41.976 34.6408 42.2652C33.7157 42.5544 32.7302 42.4447 31.8711 41.9571C31.58 42.7871 31.0792 43.4988 30.4328 44.001C29.7864 44.5032 29.0237 44.7731 28.2425 44.7761ZM25.7961 37.1998C25.9641 37.1998 26.1293 37.2493 26.2757 37.3436C26.4222 37.4378 26.545 37.5737 26.6323 37.738C26.7196 37.9023 26.7684 38.0897 26.7742 38.2819C26.7799 38.4741 26.7424 38.6648 26.6651 38.8356C26.5335 39.1133 26.4282 39.4063 26.351 39.7095C26.2685 39.9987 26.2383 40.304 26.2623 40.607C26.2862 40.9099 26.3637 41.2041 26.4902 41.4716C26.6166 41.7391 26.7893 41.9743 26.9977 42.163C27.2061 42.3516 27.4459 42.4897 27.7024 42.5688C27.9589 42.6479 28.2268 42.6664 28.4897 42.6232C28.7527 42.5799 29.0052 42.4758 29.2319 42.3172C29.4586 42.1586 29.6547 41.9488 29.8083 41.7007C29.9619 41.4525 30.0698 41.1711 30.1253 40.8737C30.1922 40.5666 30.2299 40.2522 30.2378 39.9359C30.2473 39.7187 30.3118 39.5095 30.4233 39.3336C30.5349 39.1576 30.6887 39.0227 30.8661 38.9451C31.0435 38.8676 31.2367 38.8508 31.4223 38.8968C31.6079 38.9428 31.7777 39.0496 31.9112 39.2042C32.1013 39.4332 32.3122 39.6383 32.5404 39.816C32.9752 40.1275 33.4994 40.2312 34.0002 40.1047C34.5011 39.9782 34.9386 39.6316 35.2185 39.1396C35.4985 38.6475 35.5985 38.0493 35.4972 37.4737C35.3959 36.898 35.1012 36.3909 34.6766 36.0615C34.4385 35.8939 34.186 35.7546 33.9231 35.6458C33.7451 35.5694 33.5903 35.4353 33.4778 35.2598C33.3652 35.0844 33.2998 34.8752 33.2894 34.6578C33.279 34.4404 33.3242 34.2243 33.4193 34.0358C33.5145 33.8473 33.6556 33.6947 33.8253 33.5966C34.0774 33.4611 34.3171 33.2971 34.5406 33.1069C34.9447 32.7337 35.2028 32.192 35.258 31.6009C35.3132 31.0098 35.1611 30.4179 34.8352 29.9552C34.5092 29.4925 34.036 29.1971 33.5198 29.1338C33.0036 29.0706 32.4865 29.2447 32.0824 29.618C31.8722 29.8222 31.681 30.0509 31.5119 30.3003C31.3929 30.4698 31.2334 30.596 31.0528 30.6635C30.8721 30.7309 30.6783 30.7367 30.4948 30.6802C30.3114 30.6237 30.1463 30.5072 30.0197 30.345C29.8931 30.1829 29.8104 29.982 29.7818 29.767C29.7446 29.4538 29.679 29.1459 29.5861 28.8482C29.4008 28.2932 29.0305 27.8452 28.5566 27.6027C28.0828 27.3602 27.5443 27.3432 27.0595 27.5553C26.8193 27.6602 26.5996 27.8183 26.4129 28.0205C26.2261 28.2227 26.076 28.4651 25.971 28.7337C25.8661 29.0023 25.8083 29.292 25.8012 29.5862C25.794 29.8803 25.8375 30.1733 25.9292 30.4482C26.0338 30.7406 26.165 31.0196 26.3206 31.2806C26.425 31.4627 26.4807 31.6757 26.481 31.8934C26.4813 32.1112 26.4262 32.3243 26.3223 32.5068C26.2185 32.6893 26.0705 32.8331 25.8964 32.9208C25.7223 33.0085 25.5297 33.0362 25.3421 33.0005C25.0703 32.9441 24.7942 32.92 24.5181 32.9288C24.2611 32.9435 24.0091 33.016 23.7766 33.1422C23.5441 33.2684 23.3355 33.4458 23.1629 33.6643C22.9902 33.8828 22.8568 34.1381 22.7704 34.4156C22.6839 34.6931 22.646 34.9874 22.6588 35.2817C22.6717 35.5759 22.735 35.8644 22.8453 36.1307C22.9555 36.3969 23.1104 36.6357 23.3013 36.8334C23.4921 37.031 23.715 37.1837 23.9574 37.2828C24.1998 37.3818 24.4568 37.4252 24.7138 37.4104C24.9886 37.3868 25.2605 37.3305 25.5251 37.2424C25.6115 37.2134 25.7011 37.1983 25.7912 37.1976L25.7961 37.1998Z" fill="white"/>
<path d="M29.5088 36.0021C30.0493 36.0021 30.4874 35.5004 30.4874 34.8816C30.4874 34.2629 30.0493 33.7612 29.5088 33.7612C28.9684 33.7612 28.5303 34.2629 28.5303 34.8816C28.5303 35.5004 28.9684 36.0021 29.5088 36.0021Z" fill="white"/>
<path d="M37.5334 51.5322C37.2949 51.9144 37.1681 52.3733 37.1713 52.8431C37.1707 52.9374 37.1608 53.0313 37.142 53.1232C36.66 52.5546 36.1176 52.0577 35.5273 51.6442C34.8353 48.7512 33.7095 46.0178 32.2002 43.566C32.249 43.4978 32.2947 43.4267 32.3372 43.3531C32.7491 43.4784 33.1734 43.5424 33.5995 43.5436C33.8986 43.5439 34.1969 43.5102 34.49 43.4428C35.8855 45.9296 36.9137 48.6627 37.5334 51.5322ZM58.9934 50.4118C58.2121 50.4088 57.4493 50.1389 56.8028 49.6364C56.1564 49.134 55.6557 48.422 55.3649 47.5917C54.5058 48.0793 53.5202 48.1889 52.5952 47.8997C51.6702 47.6105 50.8701 46.9426 50.3466 46.0227C49.8232 45.1029 49.6129 43.995 49.7556 42.9093C49.8983 41.8237 50.3841 40.8358 51.1208 40.1331C50.4501 39.3483 50.0544 38.3089 50.0087 37.2122C49.963 36.1154 50.2705 35.0377 50.8729 34.1833C51.4753 33.329 52.3307 32.7576 53.2767 32.5776C54.2227 32.3976 55.1935 32.6214 56.0049 33.2066C56.4487 32.232 57.1898 31.4781 58.0874 31.0882C58.985 30.6984 59.9764 30.6998 60.8732 31.0922C61.7699 31.4846 62.5094 32.2406 62.9511 33.2165C63.3928 34.1924 63.5058 35.3202 63.2688 36.3853C64.2143 36.5688 65.0681 37.1435 65.668 38.0001C66.268 38.8567 66.5725 39.9357 66.5236 41.0323C66.4747 42.1289 66.0759 43.1668 65.4029 43.949C64.7298 44.7313 63.8294 45.2034 62.8725 45.2758C62.9531 45.9131 62.9132 46.5628 62.7553 47.1809C62.5974 47.799 62.3253 48.371 61.9574 48.8581C61.5895 49.3452 61.1344 49.736 60.623 50.0041C60.1116 50.2722 59.5559 50.4112 58.9934 50.4118ZM56.0205 44.5094C56.2718 44.509 56.5136 44.6194 56.6957 44.8175C56.8779 45.0157 56.9865 45.2865 56.9991 45.5738C57.0077 45.8907 57.0451 46.2058 57.1107 46.5138C57.2461 47.0876 57.5751 47.5763 58.0253 47.8724C58.4755 48.1684 59.0099 48.2476 59.5111 48.0925C60.0122 47.9374 60.4391 47.5607 60.6976 47.0453C60.9562 46.5298 61.0254 45.9179 60.8899 45.3441C60.8126 45.0405 60.7073 44.7471 60.5758 44.4691C60.4885 44.2762 60.4522 44.0585 60.471 43.8425C60.4899 43.6264 60.5631 43.4212 60.682 43.252C60.8008 43.0827 60.96 42.9566 61.1402 42.889C61.3205 42.8215 61.514 42.8153 61.6972 42.8714C61.9621 42.9594 62.2343 43.0153 62.5094 43.0383C62.7661 43.053 63.0228 43.0097 63.2649 42.9108C63.507 42.8119 63.7297 42.6594 63.9203 42.462C64.1109 42.2646 64.2656 42.0261 64.3757 41.7602C64.4858 41.4943 64.5491 41.2062 64.562 40.9123C64.5748 40.6184 64.537 40.3245 64.4506 40.0473C64.3643 39.7702 64.2311 39.5152 64.0586 39.297C63.8862 39.0787 63.6779 38.9015 63.4457 38.7755C63.2135 38.6494 62.9618 38.5769 62.7051 38.5622C62.4297 38.5538 62.1542 38.5782 61.8831 38.6351C61.6957 38.6705 61.5032 38.6428 61.3293 38.5551C61.1554 38.4675 61.0075 38.3238 60.9037 38.1415C60.8 37.9592 60.7448 37.7463 60.7449 37.5288C60.7451 37.3112 60.8005 37.0984 60.9046 36.9163C61.0601 36.6545 61.1913 36.3747 61.296 36.0816C61.4729 35.5287 61.4526 34.9182 61.2394 34.3823C61.0263 33.8463 60.6375 33.428 60.157 33.2177C59.6766 33.0075 59.1432 33.0222 58.6722 33.2587C58.2012 33.4953 57.8304 33.9346 57.6401 34.4817C57.5467 34.7795 57.4811 35.0879 57.4443 35.4015C57.4156 35.6165 57.3328 35.8172 57.2062 35.9792C57.0795 36.1412 56.9144 36.2576 56.731 36.314C56.5475 36.3704 56.3537 36.3645 56.1732 36.297C55.9927 36.2295 55.8332 36.1032 55.7142 35.9337C55.5443 35.6841 55.3525 35.4551 55.1418 35.2503C54.7375 34.8772 54.2204 34.7033 53.7042 34.7667C53.188 34.8302 52.7149 35.1258 52.3891 35.5886C52.0632 36.0515 51.9113 36.6435 51.9667 37.2346C52.0221 37.8257 52.2804 38.3673 52.6846 38.7404C52.9084 38.93 53.148 39.094 53.3999 39.23C53.5695 39.3278 53.7106 39.48 53.8059 39.668C53.9013 39.856 53.9468 40.0717 53.9369 40.2888C53.9271 40.5059 53.8623 40.715 53.7504 40.8907C53.6385 41.0664 53.4845 41.201 53.307 41.2781C53.0432 41.3871 52.79 41.5271 52.5515 41.696C52.1163 42.0204 51.8114 42.5294 51.7039 43.1111C51.5965 43.6928 51.6953 44.2996 51.9785 44.7979C52.2618 45.2962 52.7064 45.6453 53.2145 45.7683C53.7225 45.8914 54.2525 45.7783 54.6877 45.4539C54.9157 45.2759 55.1266 45.0708 55.3169 44.8422C55.4083 44.7364 55.5171 44.6525 55.6371 44.5953C55.757 44.5382 55.8857 44.509 56.0156 44.5094H56.0205Z" fill="white"/>
<path d="M57.7208 41.6388C58.2612 41.6388 58.6993 41.1372 58.6993 40.5184C58.6993 39.8996 58.2612 39.3979 57.7208 39.3979C57.1803 39.3979 56.7422 39.8996 56.7422 40.5184C56.7422 41.1372 57.1803 41.6388 57.7208 41.6388Z" fill="white"/>
<path d="M54.6186 49.0559C53.4026 50.854 52.5805 52.9593 52.2211 55.1958C52.0271 55.3437 51.8409 55.5046 51.6634 55.6776C51.3632 54.8899 50.9995 54.136 50.5771 53.4256C50.9554 51.8516 51.5323 50.3494 52.2896 48.9663C52.7253 49.1106 53.1768 49.1823 53.6303 49.1792C53.9626 49.1776 54.2938 49.1363 54.6186 49.0559Z" fill="white"/>
</svg>
